<svg xmlns="http://www.w3.org/2000/svg" xmlns:xlink="http://www.w3.org/1999/xlink" width="39.573" height="30" viewBox="0 0 39.573 30">
  <defs>
    <clipPath id="clip-path">
      <rect id="Rectangle_85" data-name="Rectangle 85" width="39.573" height="30" fill="#fcebc8"/>
    </clipPath>
  </defs>
  <g id="Group_14" data-name="Group 14" transform="translate(0)">
    <g id="Group_57" data-name="Group 57" transform="translate(0 0)" clip-path="url(#clip-path)">
      <path id="Path_2865" data-name="Path 2865" d="M9.737,16.539a3.757,3.757,0,0,1,3.493-3.973,3.757,3.757,0,0,1,3.494,3.973,3.757,3.757,0,0,1-3.494,3.973,3.756,3.756,0,0,1-3.493-3.973m13.112,0a3.757,3.757,0,0,1,3.494-3.973,3.757,3.757,0,0,1,3.493,3.973,3.756,3.756,0,0,1-3.493,3.973,3.757,3.757,0,0,1-3.494-3.973M9.777,24.478l-.8.554c1.721,1.01,3.162,1.656,3.162,1.656L10.12,30A36.936,36.936,0,0,1,.17,25.032,34.141,34.141,0,0,1,6.063,2.566,30.464,30.464,0,0,1,14.192,0l1.1,2.2a26.265,26.265,0,0,1,8.981.021L25.383,0a30.479,30.479,0,0,1,8.129,2.566A34.149,34.149,0,0,1,39.4,25.032,36.932,36.932,0,0,1,29.453,30l-2.017-3.313s1.441-.646,3.161-1.656l-.85-.588a23.938,23.938,0,0,1-10.022,2.1,23.966,23.966,0,0,1-9.947-2.061" transform="translate(0 -0.001)" fill="#fcebc8" fill-rule="evenodd"/>
    </g>
  </g>
</svg>
