<svg id="Group_118" data-name="Group 118" xmlns="http://www.w3.org/2000/svg" xmlns:xlink="http://www.w3.org/1999/xlink" width="30.002" height="30" viewBox="0 0 30.002 30">
  <defs>
    <clipPath id="clip-path">
      <rect id="Rectangle_87" data-name="Rectangle 87" width="30.002" height="30" fill="#fcebc8"/>
    </clipPath>
  </defs>
  <g id="Group_61" data-name="Group 61" transform="translate(0 0)" clip-path="url(#clip-path)">
    <path id="Path_2867" data-name="Path 2867" d="M21.735,6.315a1.812,1.812,0,1,1,1.812,1.813,1.813,1.813,0,0,1-1.812-1.813M6.914,15A8.087,8.087,0,1,1,15,23.087,8.087,8.087,0,0,1,6.914,15M15,8.861A6.139,6.139,0,1,1,8.863,15,6.139,6.139,0,0,1,15,8.861M0,5.454A5.454,5.454,0,0,1,5.455,0H24.547A5.454,5.454,0,0,1,30,5.454V24.546A5.455,5.455,0,0,1,24.547,30H5.455A5.455,5.455,0,0,1,0,24.546ZM5.455,1.948H24.547a3.506,3.506,0,0,1,3.506,3.506V24.546a3.507,3.507,0,0,1-3.506,3.508H5.455a3.507,3.507,0,0,1-3.506-3.508V5.454A3.506,3.506,0,0,1,5.455,1.948" transform="translate(0 0)" fill="#fcebc8" fill-rule="evenodd"/>
  </g>
</svg>
