<svg id="Group_119" data-name="Group 119" xmlns="http://www.w3.org/2000/svg" xmlns:xlink="http://www.w3.org/1999/xlink" width="30" height="30" viewBox="0 0 30 30">
  <defs>
    <clipPath id="clip-path">
      <rect id="Rectangle_88" data-name="Rectangle 88" width="30" height="30" fill="#fcebc8"/>
    </clipPath>
  </defs>
  <g id="Group_63" data-name="Group 63" transform="translate(0 0)" clip-path="url(#clip-path)">
    <path id="Path_2868" data-name="Path 2868" d="M24.793,16.639v.967a.14.14,0,0,1-.082.126,4.786,4.786,0,0,0-1.765,1.2c-1.1,1.529-1.938,3.712-3.813,3.712H11.315A5.025,5.025,0,0,1,6.3,17.61v-.088a.134.134,0,0,1,.136-.133h4.357a.149.149,0,0,1,.142.165,1.467,1.467,0,0,0,.156.836,1.534,1.534,0,0,0,1.375.854h2.157V17.558H12.488a.136.136,0,0,1-.11-.214l.078-.114c.2-.287.489-.734.775-1.24a9.989,9.989,0,0,0,.54-1.073c.029-.067.055-.136.079-.2.041-.116.084-.228.115-.337.031-.092.057-.189.08-.28a4.259,4.259,0,0,0,.1-.984c0-.134-.007-.274-.018-.409s-.024-.292-.044-.437c-.012-.13-.035-.258-.061-.392-.03-.2-.074-.389-.124-.585l-.017-.074c-.036-.133-.067-.262-.11-.4-.121-.422-.262-.831-.409-1.214-.055-.154-.116-.3-.178-.446-.091-.222-.183-.422-.266-.61-.046-.086-.081-.165-.119-.245s-.085-.183-.128-.269c-.03-.067-.065-.128-.09-.19l-.265-.487a.086.086,0,0,1,.1-.124l1.65.446.229.063.24.065.087.027V6.857a.845.845,0,0,1,1.446-.607.865.865,0,0,1,.248.607V8.313l.177.048.222.157c.062.05.128.111.208.172.159.128.349.293.556.482.057.05.11.1.16.148.269.25.569.543.855.865.08.092.159.184.239.281s.166.2.24.293c.1.128.2.263.292.4.044.068.093.133.134.2.117.178.22.362.319.544.042.086.085.178.121.269a3.82,3.82,0,0,1,.252.744,1.248,1.248,0,0,1,.038.166,2.273,2.273,0,0,1,.029.245,2.493,2.493,0,0,1-.042.769,2.618,2.618,0,0,1-.092.322c-.036.1-.074.213-.121.317a4.292,4.292,0,0,1-.332.63c-.041.073-.09.153-.139.225s-.11.153-.16.225c-.067.093-.141.19-.213.275a2.839,2.839,0,0,1-.208.263c-.1.122-.2.236-.305.348a2.727,2.727,0,0,1-.2.213c-.067.074-.133.141-.2.2-.1.1-.189.183-.262.25l-.17.156a.133.133,0,0,1-.091.033H16.317v1.685h1.652a1.544,1.544,0,0,0,1.007-.372A12.3,12.3,0,0,0,20,17.866a.178.178,0,0,1,.063-.038l4.564-1.319a.135.135,0,0,1,.171.13M7.4,15.505l.065-.1,3.9-6.106a.134.134,0,0,1,.235.018c.652,1.461,1.214,3.278.951,4.408a6.908,6.908,0,0,1-.768,1.68,2.808,2.808,0,0,1-.145.247.138.138,0,0,1-.111.059H7.516a.134.134,0,0,1-.116-.2M30,15A15,15,0,1,1,15,0,15,15,0,0,1,30,15" transform="translate(0 -0.001)" fill="#fcebc8" fill-rule="evenodd"/>
  </g>
</svg>
