<svg xmlns="http://www.w3.org/2000/svg" xmlns:xlink="http://www.w3.org/1999/xlink" width="201.646" height="74.719" viewBox="0 0 201.646 74.719">
  <defs>
    <clipPath id="clip-path">
      <rect id="Rectangle_5" data-name="Rectangle 5" width="201.646" height="74.719" fill="none"/>
    </clipPath>
  </defs>
  <g id="Group_10" data-name="Group 10" transform="translate(0 0)">
    <g id="Group_9" data-name="Group 9" transform="translate(0 0)" clip-path="url(#clip-path)">
      <path id="Path_13" data-name="Path 13" d="M40.443,67.181c-.931-1.031-2.174-.9-3.3-1.207-.492-.488-1.2-.058-1.692-.532l-.988-.088c.121-1.62,1.241-1.164,2.029-1.263.965-.122,1.935.309,3.318.116-2.343-.607-4.378-.723-6.271-1.5-2.079-.85-2.33-1.827-1.265-4.137a2.191,2.191,0,0,1,2.209-.7c11.1,2.21,22.322,2.021,33.533,2.356,5.565.167,11.106-.322,16.656-.057,2.524.12,5.33.571,7.515-.019a21.338,21.338,0,0,1,9.314-.251c1.845.294,3.757-.233,5.641-.1,1.039.071,1.514-.473,1.51-1.637,0-1.038-.3-2.07-1.3-2-4.264.281-8.614-.949-12.781.932a2.013,2.013,0,0,1-1.27.34c-6.329-1.362-12.7-.384-19.049-.437-4.561-.037-9.133.1-13.678-.163-1.87-.108-3.714-.547-5.558.012-1.277.386-2.041-1.584-3.683-.579-1.246.763-3.159.127-4.757-.2-1.613-.326-3.219.11-4.838.009-5.946-.372-11.9-.622-18.146-.572,2.4.446,5.022-.248,5.665,3.378.256,1.914-1.043,3.371-1.938,2.229-1.563-1.993-3.165-1.153-4.787-1.346-2.289-1.727-4.99-2.17-7.48-3.267-.151-.729-.358-1.412-1.044-1.689-1.789-.724-2.356-2.394-2.5-4.395a2.327,2.327,0,0,0-.257-1.2C9.105,46.482,8.323,43.04,7.533,39.6c-.436-1.515-1.091-2.72-2.666-2.767-.363-.011-.591-.369-.7-.785-.367-.98.316-1.033.79-1.081a2.792,2.792,0,0,0,2.259-1.5c1.476-2.631,4.252-3.045,6.129-4.973.75-.77,1.22.425,1.753.3,3.344-.818,6.765-.79,10.128-1.37,1.45-.249,1.852,1.185,2.575,1.951.615-1.165.312-3.046,1.823-4a.708.708,0,0,0-.389-1.292c-2.127-.23-4.194-1.373-6.382-.666-2.35.758-3.723-.969-5.116-2.672,3.562-.886,7.2-.222,10.78-.7,1.878-1.365,3.9-.794,5.9-.625a4.043,4.043,0,0,1,1.172.581c3.168.5,6.022,2.865,9.207,2.723,4.521-.2,8.9,1.312,13.379,1.043,6.861-.412,13.572,1.556,20.4,1.573a.66.66,0,0,1,.267.042c.906.31,2.474.054,2.461,1.322-.017,1.718-1.6,1.063-2.586,1.287a27.924,27.924,0,0,1-10.984.586c.415.333.558.953,1.71.453,1.651-.716,3.7-.121,5.59-.2,5.9-.262,11.786-.927,17.7-.416a9.864,9.864,0,0,0,4.256-.6,3.512,3.512,0,0,1,3.609.382c1.9,1.461,3.858-.759,5.75.183a5.85,5.85,0,0,1,.745.106c1.954-.011,3.628-1.75,5.7-1.154,1.966.564,4.093,0,5.947.385,1.812.373,3.5-.188,4.931.021,3.244.478,6.846-.227,9.8,2.221a3.109,3.109,0,0,0,2.866.5c2.379-.626,4.989.284,7.2-1.487a1.3,1.3,0,0,1,1.054-.171c3.634.816,7.237-.416,10.865-.2a3.573,3.573,0,0,1,2.751,1.707c.6.841.618,1.8-.381,2.322-1.346.7-2.587,1.862-4.271.832a3.245,3.245,0,0,0-3.3.122c-2.832,1.38-5.935,1.473-8.949,1.412-1.823-.036-3.529.57-5.307.6-.457.008-.814-.076-.692.776.2,1.363-.925,1.923-1.5,2.8-.37.57-.848,1.286-1.528,1.023-.772-.3-.463-1.22-.5-1.92-.159-2.846-1.084-3.829-3.757-4.138-.7-.081-1.286-.766-2.39-.6.7.707,1.478,1.3,1.241,2.314-.265,1.134-1.226,1.156-1.97,1.348-3.712.958-7.51.525-11.246.548-6.109.038-12.182.859-18.293.776a33.524,33.524,0,0,0-5.262.761c-1.48.224-1.689,2.234-2.682,2.636-1.683.683-.886-2.595-2.363-2.6-1.614-.01-3.3-.645-4.809-.158a20.6,20.6,0,0,1-6.413.578c-12.669.075-25.343-.285-38,.264a58.118,58.118,0,0,0-8.153.749c-2.31.43-4.755-.265-6.907,1.462-.622.5-1.5.071-1.939-.623-1.158-1.831-2.65-1.43-4.25-1.221a2.082,2.082,0,0,0,1.168,1.018c.238.089.47.2.7.3.9.513,2.279.418,2.12,2.279-.012.14.069.183.272-.027,2.006-2.082,4.455-1.766,6.876-1.9a85.769,85.769,0,0,1,15.588.642c3.542.46,7.146-.241,10.651.983,2.689.94,5.505-.094,8.286.064a156.358,156.358,0,0,0,22.476.139c5.449-.478,10.913-.487,16.345-.731,5.517-.247,11.079-.494,16.6-.725s11.1.027,16.641-.789a21.787,21.787,0,0,1,8.054.577c2.2.52,4.631-.2,6.957.088a26.888,26.888,0,0,0,8.41-.392c1.864-.358,3.488.3,3.124,3.226,1.189.494,2.9-2.2,3.483.877.06.318.121.315.188.139,1.321-3.494,4.417.013,6.149-2.106.385-.471,1.048.006,1.446.441.709.775,1.357,1.614.152,2.57.871-.083,1.785-.555,2.565.287.427.463.718,1.258.207,1.632-1.189.87-1.63,2.66-3.289,3.014-5.128,1.094-10.21,1.875-15.462.949-1.629-.287-3.449.667-5.234.732-.83.03-1.784.309-2.279-.469-1.952-3.066-3.574-.61-5.295.3a2.012,2.012,0,0,1-.309.759c-2.467,1.892-5.257,1-7.878,1.063-6.806.158-13.617.393-20.428.192-1.186-.035-2.121.207-2.242,1.946-.123,1.781.61,2.376,2,2.607,1.82.3,3.562-.33,5.353-.4,4.567-.173,9.146-.143,13.7-.048,4.655.1,9.3-.183,13.955-.009,1.219.046,2.233.957,3.748-.294,1.329-1.1,3.636-.618,5.505-.9a14.919,14.919,0,0,0,2.385-.431c2.412-.771,2.964-.135,2.619,2.923.654.578.888-.418,1.357-.5.177-.033.389.081.53.008.234-.121.019-.188-.053-.353-.777-1.777-.667-2.213.91-2.3,1.439-.076,2.827-.459,4.253-.6,1.962-.189,2.19.754,1.509,2.6,1.338.088,2.532-.482,3.88-.513-.364-.27-.652-.059-.926-.066-.894-.023-2.082.134-2.21-1.152-.149-1.513,1.18-1.327,1.979-1.4,1.673-.147,3.619-1.732,4.856,1.019.12-.118.014-.3.081-.424,1.055-1.916,2.594-2.03,3.449-.008.836,1.976,1.685,3.787,3.339,4.982.625.452.844,1.433.121,1.783-2.21,1.071-3.119,4.732-6.194,4.064,1.9,1.133,3.633.063,5.4-.22,2.1-.338,2.56.091,2.429,2.252-.024.4.43.1.429.432-.844.788-1.866.411-2.8.583a.9.9,0,0,0-.613-.333c.2.12.456.111.619.331-1,.852-2.166.432-3.257.583-.531-.537-1.209-.115-1.812-.391.279.277.72.063.891.506-1.213.856-2.6.588-3.91.788a67.341,67.341,0,0,1-12.315,1.176,41.227,41.227,0,0,0-6.422.51c-4.469.568-8.958.47-13.432.744-4.558.28-9.109.23-13.663.278-2.839.03-5.679-.24-8.52-.316-5.292-.14-10.587-.132-15.875-.386-3.852-.185-7.7-.425-11.557-.492a11.756,11.756,0,0,1-2.361-.524c.074-1.932,1.165-2.046,2.435-1.965-2.321-1.219-4.759-.045-7.139-.317-1.864-.214-4.07.3-5.524-.8-2.3-1.732-4.169-2.618-6.356-.181-5.995-.324-12-.356-17.99-.816a5.772,5.772,0,0,1-1.566-.439c-.469-.178-.606-1.21-1.538-.169-1.25,1.4-2.455.419-3.732-3.1.192,3.148-1.209,2.715-2.555,2.41a12.932,12.932,0,0,0-1.968-.067c-.281.019-.557.019-.837.015-1-.066-2.054.125-2.8-.948" transform="translate(-0.119 -0.559)" fill="#e05b2d"/>
      <path id="Path_14" data-name="Path 14" d="M107.077,28.581c-1.379.4-2.761-.4-4.043.879-.423.42-1.728.071-2.445-.7-.974-1.047-1.86-.916-3.126-.377a9.878,9.878,0,0,1-4.442.637c-3.169-.192-6.352-.574-9.516-.028a27.594,27.594,0,0,1-6.09.07c-2.126-.1-4.264.2-6.4.23-1.5.02-1.506-.05-2.193,1.58-.548-1.776-.548-1.776-2.281-2.621,2.795-.728,5.682.269,8.446-.52a35.08,35.08,0,0,1,6.3-1.055,9.572,9.572,0,0,0-3.693-.784c-1.649.111-3.368-.775-4.986-.548-3.012.419-5.877-1.43-8.869-.506-1.006.311-.969-1.727-1.861-1.264-.616.32-1.194,1.369-1.825,1.107-2.5-1.041-5.171.251-7.692-1.012a6.32,6.32,0,0,0-4.137-.424c-2.614.645-5.071-.568-7.541-.267-.369-.684.276-1.077.1-1.613-1.572-.934-3.568,1.313-4.98-.882,1.258-1.262,2.787-.785,4.223-.908,2.022.1,4.045,0,6.064.015.283.012.572.029.855.039,5.271.008,10.51.615,15.291,1.08.769.463.5-.389.466.029-.014.178-.086.117-.267.071-1.246-.321-1.262-1.031-.4-1.887a2.883,2.883,0,0,1,1.792-.606c3.317-.434,6.624.047,9.932.216.7.036,1.6.246,1.572,1.317-.024,1.1-.975,1.13-1.645,1.19-2.229.2-4.456-.368-6.694-.006,10.816.063,21.565,1.364,32.338,2.283,7.29.623,14.6,1.565,21.938.74a51.078,51.078,0,0,1-9.086-.028c-3.614-.331-7.2-.919-10.782-1.514a58.246,58.246,0,0,0-10.624-1.174c-3.932.077-7.858-1.191-11.8-.054a2.61,2.61,0,0,1-1.075-.023c-1-.145-2.226-.281-2.175-1.754.046-1.289,1.261-1.388,2.134-1.389,6.1,0,12.195-.392,18.308-.1q12.094.566,24.205.7a25.73,25.73,0,0,1,4.008.473c1.853.306,3.692.648,5.559-.043a6.477,6.477,0,0,1,2.67-.279c5.262.33,10.474.511,15.714-.938,2.73-.755,5.775-.254,8.543.51,3.473.959,6.523-.775,9.75-1.33,1.275-.22.951-1.481.716-2.535-.225-1.006-.081-1.983.8-2.389,1-.461,1.439.522,1.827,1.352,1.219,2.608,2.692,2.947,4.628,1.037,3.652-3.6,10.233-3.423,13.511.376.384.446.748.987,1.258,1.161,2.2.746,2.328,2.541,1.842,4.691a12.131,12.131,0,0,0-1.725,5.092,4.99,4.99,0,0,0,1.175,4.286c2.906,3.411,5.03,7.559,7.772,11.126a20.078,20.078,0,0,1,3.287,7.815c1.032,4.471-.517,8.227-2.893,11.56a15.029,15.029,0,0,1-5.1,4.508,24.6,24.6,0,0,0-4.492,3.343,5.972,5.972,0,0,1-3.92,1.766c-.078-.427-1.512.725-.665-.781a.835.835,0,0,0-.593-1.323,4.607,4.607,0,0,0-2.093.27c-1.581.535-3.1,1.055-4.819.541-.376-.114-1.094.16-1.22-.4a1.134,1.134,0,0,1,1.034-1.468c1.388-.093,2.572-1.1,3.94-.925.041-.4.133-.659.064-.749-.41-.536-1.695-.242-1.261-1.513.317-.933,1.08-.268,1.659-.159a.871.871,0,0,0,.519-.1c.451-.223,1.225.3,1.35-.578.12-.837-.558-.979-1.084-1.015-.653-.045-1.054-.1-.569-1.018.144-.27-.16-.59-.4-.68-.421-.155-1.023-.049-1.269-.356-.424-.532.432-.391.431-.664,0-.853-.641-.3-.953-.508a.506.506,0,0,1-.191-.732c.821-1.629-.4-1.842-1.17-1.97-.92-.152-1.477.55-1.433,1.743.016.458.333.948.063,1.355a.651.651,0,0,1-.785-.383c-.354-.648.581-1.816-.132-1.926-.744-.115-1.5-.576-2.325-.3-1.162.381-2.363.6-3.821.956,1.425,1.207,2.893.353,4.374.807-.344.718-.572,1.249-1.43,1.354a34.5,34.5,0,0,0-3.91.9c-.574.14-1.141.084-1.376-.6-.211-.611.272-.9.672-1.139a1.548,1.548,0,0,0,.874-1.306c-2.594.429-5.134.094-7.778,1.276.859.8,2.085-.191,2.449,1.4-.766.532-1.931.449-2.494,1.79-.413.981-1.013-.025-1.464-.473-.609-.606-1.112-1.223-.152-1.953.351-.267.965-.3.468-1.03-.276-.407-.665-.957-1.1-.689-2.709,1.675-5.709,1.1-8.568,1.575-1.425.235-1.482.151-.674,1.828.264.548.123.69-.228.877-.412.218-1.046.483-1.107-.193-.2-2.257-1.583-1.854-2.8-1.855a67.419,67.419,0,0,0-9.866.392c-.263.039-.614.258-.773.133-1.966-1.547-4.022-.242-6.027-.282-1.648-.032-3.263-.473-4.937-.28-3.074.355-6.2-.252-9.254.634-1.238.359-2.418-.738-3.691-.263-.267.1-.428-.315-.5-.614a2.513,2.513,0,0,1-.054-.624c.011-5.3-.484-4.753,3.952-4.746,3.557,0,7.113-.087,10.67-.107,2.734-.015,5.468-.041,8.2.047,2.1.068,4.181-.5,6.312-.154a2.238,2.238,0,0,0,2.137-1.067c-.569-.375-1.275-.7-.2-1.424.459-.308.868.023,1.3.021,1.113,0,1.913-.445,1.636-2.7,1.023,1.37,2.186,1.252,2.514,2.747.171.777,1.248,1.423,1.744,1.069,1.141-.816,2.242-.169,3.341-.332.529-.079,1.108.032,1.444-.6.573-1.076.946-1.062,1.8-.109,1.083,1.213,2.64.508,4,.477.431-.01.9-.4,1.282-.3,2.8.756,5.458-.186,8.132-.854A3.52,3.52,0,0,1,170.314,51c.287.073.938-.269.938-.426.009-1.439.569-2.054,1.793-2.125.229-.014.1-.869-.219-1a2.552,2.552,0,0,0-1.55-.165,1.454,1.454,0,0,1-1.876-.752l1.441-.446a3.078,3.078,0,0,0-1.474-1.949c-.183.088-.419.113-.484.249-.577,1.209-1.126,2.119-2.438.874-.4-.377-1.214-.128-1.835-.212-1.224-.166-1.544.714-1.607,1.985-.949-.388-.843-1.508-1.188-2.177-1.13-.018-1.659.853-2.375,1.936-.314-1.1-1.879-1.351-.823-3a.8.8,0,0,0-.538-1.172c-.609-.158-1.3-.528-1.831-.329-1.643.62-3.5.165-5,1.352-.549.436-.542-.04-.661-.391-.2-.58-.642-.844-1.076-.688-2.667.952-5.442-.66-8.1.5-.32.14-.715.027-1.068.087-1.012.174-.415-1.336-1.093-1.425-.712-.094-.366,1.8-1.492,1.122a7.769,7.769,0,0,0-1.751-.625c-2.616-.824-5.137.251-7.674.474a13.685,13.685,0,0,1-3.38-.057c-3.653-.622-7.179.924-10.8.549-1.911-.2-3.851-.028-5.777-.041a7.246,7.246,0,0,0-3.7.587c-1.229.666-2.5.164-3.68-.135a6.193,6.193,0,0,0-2.877.015,33.767,33.767,0,0,1-11.04.15c-.432-.053-.576.2-.86.263a26.786,26.786,0,0,1-10.444.525,16.506,16.506,0,0,0-4.736-.062,64.313,64.313,0,0,1-6.528-.081c-2.484.033-4.973-.489-7.542,0a10.363,10.363,0,0,1-6.013-.461,5.365,5.365,0,0,0-4.144-.2c-1.043.466-1.935-.062-2.891.017-1.029.084-2.338-1.462-2.648-.939-.909,1.529-1.734.18-2.533.267-.947.1-1.92-.282-2.907.006a1.587,1.587,0,0,1-1.032-.243,3.362,3.362,0,0,0-2.648-.209,9.879,9.879,0,0,1-4.378.241c-1.62-.383-3.193.114-4.757-.318-.591-.163-1.416-.246-1.759.426-.78,1.527-2.481.957-3.258,2.746-.509-1.433,1.119-1.887.269-2.862-.527-.6-1.48-.082-1.887-.987l.177-.1-.152-.13-.024.225a2.784,2.784,0,0,1-2.423-1.1c-.264-.264-.661-.422-.582-.946.088-.581.556-1.133.893-.961,1.675.851,4.184-1.168,5.187,2.1.208.678,1,.551,1.683.419.888-.173,1.23-1.215,2.039-1.416.584-.145.866-1.009,1.834-.267a3.266,3.266,0,0,0,3.6-.136c.226-.141.482-.419.685-.379a17.262,17.262,0,0,0,6.1-.3,42.92,42.92,0,0,1,6.4-.194c11.412.061,22.824,0,34.236.047,2.8.01,5.529-.8,8.356-.65,2.348.122,2.365-.133,2.668,2.822.017.155.185.29.327.5.854-.388.428-1.076.383-1.764-.062-.956.293-1.651,1.277-1.1.218.122.358.5.65.186.9-.981,1.816-1.808,2.991-.476a.24.24,0,0,0,.255,0c2.2-1.711,4.674-.681,6.994-.773,2.579-.1,5.116-.608,7.692-.683,3.213-.093,6.462.58,9.64-.48,1.758,1.158,3.623-.393,5.476.363,1.361.556,2.645-.892,4.222-.892-.247-.621-.355-1.279-.548-1.313-.793-.144-1.546-.386-.921-1.443.5-.851,1.39-1.3,2.29-.429a1.38,1.38,0,0,1,.162.249c.9,1.407,1.039-.039,1.246-.468.537.543.975,1.054,1.469,1.474,2.477,2.1,2.49,2.114,1.89,5.53,2.633-2.545,2.678-2.641,2.133-4.421,1.283-1.028,3.134.478,4.322-1.3.092-.138,1.1.324,1.826.268,1.354-.107,2.764.632,3.971-.728a.7.7,0,0,1,.769-.05c1.8,1.522,3.395-.22,5.017-.533,2.151-.414,2.477-.7,4.343.291a1.249,1.249,0,0,0,1.687-.611c.4-.9,2,.169,1.652-1.407a2.417,2.417,0,0,0-2.2-1.813,6.862,6.862,0,0,1-2.262.128c-1.434-.054-2.872.027-4.308.062-.629.015-1.283-.035-1.525.914-.053.212-.31.717-.482.162-.494-1.587-1.621-.939-2.521-1.069a2.32,2.32,0,0,0-2.541,1.32,1.158,1.158,0,0,1-1.238.315c-1.527-1.042-2.968.046-4.414.2-1.093.114-2.115-.429-3.19-.158-.172.044-.578-.264-.6-.451-.194-1.711-1.175-1.467-2.186-1.313-2.274.346-4.354-.773-6.517-1.26-.8-.18-1.577-.353-1.492.912s-.625,1.5-1.284,1.471c-.64-.029-1.5-.268-1.379-1.456.113-1.1-.377-1.507-1.047-.887s-1.739-.7-2.116.8c-.04.161-.921.28-1.225.062-1.26-.9-2.7-.509-3.9-.868a2.651,2.651,0,0,0-2.544.615c-.883.622-1.5,1.073-2.226-.036-.184.177.159.413-.076.1a.914.914,0,0,1,.077-.094" transform="translate(-0.391 -0.35)" fill="#e05b2d"/>
      <path id="Path_15" data-name="Path 15" d="M47.56,20.21l-6.783.031a10.074,10.074,0,0,0-.606-2.572,1.156,1.156,0,0,1,.249-.749,1.939,1.939,0,0,1,1.4-.367,3.628,3.628,0,0,1,.709.144,3.535,3.535,0,0,0,2.042.24c1.79-.407,2.664-2.313,4.054-3.373.913-.77,1.925-.2,2.889-.308.247-.014.493-.006.74,0,.489.007.98.017,1.469.009.243-.02.485-.024.728-.029a17.974,17.974,0,0,1,2.525-.272,13.362,13.362,0,0,0,1.438.249c1.569.06,3.182.511,4.559-.766.133-.116.254.3.417.054.218-.333-.023.224-.1-.217a1.042,1.042,0,0,1,.15-.63c.609-.619,1.31-.271,1.972-.307a4.451,4.451,0,0,0,4-1.468,2.993,2.993,0,0,1,1.064-.333c1.433.612,2.261-1.83,3.738-1.023s2.593,2.471,4.544,2.153a2.764,2.764,0,0,0,2.375-1.582.994.994,0,0,1,.63-.281c.62.332.758,1.231,1.363,1.579a1.752,1.752,0,0,0,1.584-.008,3.962,3.962,0,0,1,.75-.166c2.1.017,4.181-.214,6.276-.229,4.887-.094,9.77-.215,14.648.165,2.44.863,4.946.346,7.418.472.3-.014.594-.017.889-.019a60.71,60.71,0,0,1,8.546-.58c2.344-.546,4.613.061,6.89.615.737,0,1.471-.012,2.207-.016,3.951-.162,7.912.362,11.848-.323a9.992,9.992,0,0,1,2.711-.283c.957-.036,1.918.063,2.875-.017,1.438-.606,2.831.631,4.269.14a15.316,15.316,0,0,1,2.174-.52,3.325,3.325,0,0,1,.741.049,5.009,5.009,0,0,0,2.487.3c2.708-2.159,6.073-2.411,8.9-4.214.559.05,1.279-.387,1.493.7a1.891,1.891,0,0,1-.945,1.973,3.342,3.342,0,0,0-.852.719c-.323.334-1.008.523-.94.964.115.738.873.459,1.343.66a2.724,2.724,0,0,1,1.389.66,89.483,89.483,0,0,0,14.1-.852,8.454,8.454,0,0,1,5.2.719c2.528,1.375,3.846,5.835,2.856,9.311-.025-.523-.084-1.047-.071-1.569.028-1.08-.223-1.8-1.3-1.913a2.921,2.921,0,0,1-2.312-1.92c-1.317-2.9-3.607-2.7-5.825-2.339a3.066,3.066,0,0,1-2.084.048c-1.761-.751-3.577.324-4.4,2.2-.171.391-.216.806-.661.767-1.12-.1-2.082.566-3.125.838-1.276.333-1.886-.349-1.867-2.093,0-.092.132-.2.116-.272a2.563,2.563,0,0,0-1.18-1.9c-.1-.053-.348.1-.444.237a1.621,1.621,0,0,0,.06,1.968,9.142,9.142,0,0,1,.624,2.029c-1.239.907-2.352,1.9-3.909,1.224-.418-.181-.828.36-1.054.821-.308.631-.66.582-1.075.2-.388-.356-.917-.577-1.2-.116-1.067,1.711-2.564.83-3.562.431-2.185-.873-4.4-.446-6.575-.743-1.34-.183-3.027-1.013-4.12.914q-3.058.1-6.116.2c-.086,0-.172-.068-.26-.074-2.059-.139-4.09.34-6.167.285-1.977-.051-4.072-1.063-6.008.338-1.312-.89-2.621.561-4.166-.25a5.671,5.671,0,0,0-5.183-.265c-5.48-1.09-11.029-.283-16.533-.8-1.644-.153-3.289-.589-4.98.119-1.176.492-2.4-.389-3.659-.463a104.02,104.02,0,0,0-10.911.1c-2.175.1-4.354-.162-6.52.141-.39.054-.747.176-.655.712a.914.914,0,0,0,.508.63,8.047,8.047,0,0,0,4.262-.021,8.179,8.179,0,0,1,5.294,0,8.738,8.738,0,0,0,2.942.222c2.924.031,5.855-.1,8.671,1.13a1.983,1.983,0,0,0,1.586.085c1.411-.772,2.536.225,3.8.438,1.478.249,3.035,1.412,4.612.3.136-.1.36,0,.531-.049,1.129-.322,1.552,1.306,2.647,1.25.793-.041,1.4-1.5,2.4-.275.516.633,1.357.273,1.969-.3.3-.279.673-.482.948-.112.633.848,1.2,1.895,1.719-.075.021-.083.17-.21.187-.2,1.471,1.2,3.267-.034,4.764.876a1.044,1.044,0,0,1,.5.651.609.609,0,0,1-.731.652c-1.6-.163-3.184.222-4.8.108-4.283-.3-8.6.271-12.867-.679-1.306-.29-2.634.179-3.992.048-3.541-.343-7.059-1.089-10.656-.793A11.8,11.8,0,0,1,87.2,22.72c-2.326-.649-4.635-.45-6.954-.509-4.366-.111-8.707-.862-13.083-.648a1.826,1.826,0,0,1-.8-.1.86.86,0,0,1-.531-.958c.058-.5.385-.819.731-.7,2.137.763,4.352-.473,6.5.439.894.379,1.822-.146,3.013-.618-3.765-1.124-10.636-1.084-13.324-.036.18,1.326,1.542.151,1.912,1.4-3.615-.322-7.159.333-10.732-.563-1.981-.5-4.116-.162-6.181-.2l-.087-.239Z" transform="translate(-1.174 -0.167)" fill="#e05b2d"/>
      <path id="Path_16" data-name="Path 16" d="M17.631,20.781c.967.9,2.559.477,3.216,2.1.083.2.743.31,1.008.158,1.933-1.1,3.777-.649,5.688.132a9.206,9.206,0,0,0,2.4.121c1.135.125,1.4.725.591,1.761-.326.419-.089,1.923-1.332,1.282-.251-.13-.462.9-.422,1.277a2.289,2.289,0,0,1-.847,2.167c-.322.3-.282,1.456-.894,1.238-1.007-.359.084-.88.082-1.343,0-.944-1.249-.63-1.3-1.713-.016-.319-.625.05-.879.314a1.391,1.391,0,0,1-1.966.307c-.624-.422-1.225.059-1.81,0-.5-.051-1.1,1.111-1.628-.307-.215-.572-.632.523-.846,1.015-.668,1.535-.675,1.531-1.732.165-.825-1.067-1.049-.982-2.3.865-.5-.375-.021-1.245-.722-1.676a9.209,9.209,0,0,1-3.889,2.9A4.893,4.893,0,0,0,7.7,33.918c-.8,1.351-1.684,2.414-3.275,1.764-.071-.029-.239.262-.361.4-1.12-.183-.957-1.991-2.051-2.207a1.125,1.125,0,0,1-.111-1.33c-.326-.972-.417-2.333-1.027-2.833C-.4,28.672,1.792,27.385.5,26.58A3.051,3.051,0,0,1,2.781,25.11a4.273,4.273,0,0,0,2.977-1.072c.67-.614,1.847-.309,2.6-1.118-.6-.627-1.545-.522-1.974-1.416,1.651-.842,6.881-1.176,11.244-.722" transform="translate(-0.013 -0.601)" fill="#e05b2d"/>
      <path id="Path_17" data-name="Path 17" d="M47.266,68.77c.607.015,1.115.7,1.762.407.216-.574-.322-.661-.4-1.022a1.316,1.316,0,0,1,.519-1.588c.4-.214,1.907.947,1.81,1.392-.328,1.5.271,2.152,1.443,2.175.953.019,1.227-.554,1.293-2.308.714-.246.694.429.74.882.094.931.622,1.057,1.279,1.272a16.5,16.5,0,0,0,4.225.319,88.331,88.331,0,0,0,9.4.381c2.106-.084,4.17.3,6.225.347a7.329,7.329,0,0,1,.885-2.784c1.307.615,3.364-.1,3.42,2.785,0,.114.3.35.367.312,1.446-.847,2.624.751,4.056.542,2.157-.317,4.373.313,6.53-.252,1.3-.341,2.377.613,3.608.643a.859.859,0,0,1,.794,1.032c-.1.6-.508.718-1.032.639-1.132-.172-2.355-.592-3.077,1-5.307-.928-10.656-.156-15.972-.541-3.747-.271-7.478-.852-11.217-1.281a10.309,10.309,0,0,0-1.877-.092,38.514,38.514,0,0,1-12.17-.972c-2.233-.558-4.588-.449-6.838-1.081a7.629,7.629,0,0,1-1-.437c.532-2.154,2.071-.822,3.106-1.224.727-.061,1.518.2,2.12-.544" transform="translate(-1.228 -1.944)" fill="#e05b2d"/>
      <path id="Path_18" data-name="Path 18" d="M159.638,10.222c-.163,0-.327,0-.49-.013-1-.63-2.135.145-3.137-.422a3.95,3.95,0,0,0-2.462.091,2.419,2.419,0,0,1-.748-.009,8.775,8.775,0,0,0-2.327-.085q-2.157.013-4.306.032-1.8-.012-3.6,0c-.754-.02-1.508.054-2.261,0-1.041-.08-2.126.125-3.064-.632-.574-1.678.607-1.713,1.38-1.753a17.827,17.827,0,0,1,5.251,0c2.131.073,4.264,0,6.39.045.576-.04,1.19.132,1.687-.39a3.394,3.394,0,0,1,1.26-1.267l.986-.072c.4-.3.614-.045.779.352.476.16-1.323.692.087.7a11.463,11.463,0,0,0,2.276.117c.674-.017.973-.567,1.231-1.175,2.824.184,5.558-.55,8.322-1.041A4.611,4.611,0,0,1,171.17,5.73c-.235.168-.812-.1-.664.518.094.394,1.006.232.733.994-.2.547-.748.492-1.175.391A2.575,2.575,0,0,0,166.81,9.27c-.286.627-.667.691-.975.114-.643-1.21-1.234-1.032-1.754.049-.433.9-.949,1.5-1.9,1.311-.853-.132-1.626-.807-2.542-.52" transform="translate(-4.005 -0.134)" fill="#e05b2d"/>
      <path id="Path_19" data-name="Path 19" d="M32.851,60.291c-.563,1.067-.524,1.9.552,2.537,1.766,1.05,3.735.923,5.593,1.426a18.916,18.916,0,0,0,2.323.339C41.16,66,40.67,66.533,39.375,66.3c-1.432-.254-2.957-1.017-4.357.231-2.41-.408-4.663-1.676-7.127-1.795-.083,0-.214-.05-.237-.118-.835-2.392-3.272-2.064-4.565-3.672a4.375,4.375,0,0,1,3.558-.928c.336.075.744-.029.8.554.071.725.021,1.6.959,1.5.874-.1,1.154-.862,1.209-1.779a2.078,2.078,0,0,1,3.236,0" transform="translate(-0.675 -1.739)" fill="#e05b2d"/>
      <path id="Path_20" data-name="Path 20" d="M7.6,40.213c.481.285.572,1.068,1.171,1.218.338.085.775.251.5.787-1.289,2.48.784,3.8,1.559,5.375.651,1.323,1.578,2.181,1.43,4.041a2.7,2.7,0,0,0,2.019,3.059,2.475,2.475,0,0,1,.758.287c1.106.585,1.11.731.089,2.136-1.709-.427-2.866-2.067-4.459-2.763-.514-.224-.738-.824-.979-1.42a12.92,12.92,0,0,0-2.057-3.626,4.692,4.692,0,0,1-.993-4.578c.408-1.474.65-3.009.966-4.517" transform="translate(-0.188 -1.175)" fill="#e05b2d"/>
      <path id="Path_21" data-name="Path 21" d="M143.526,8.292c-2.207-.208-4.432-.708-6.548.554l-.277.2a.9.9,0,0,1-.471-.479,1.67,1.67,0,0,1,.113-1.082,5.305,5.305,0,0,0,.445-1.354c.212-.765.914-.516,1.323-.877a25.041,25.041,0,0,1,6.687-.816c.871-.022,1.773-.129,2.456.731,1.014.145,2.382-.386,2.383,1.7-.6,1.163-1.559.921-2.473.836-.716-.025-1.435-.018-2.152-.016a1.5,1.5,0,0,0-1.486.61" transform="translate(-3.979 -0.129)" fill="#e05b2d"/>
      <path id="Path_22" data-name="Path 22" d="M114.252,5.8c3.01-.949,6.014-2.014,9.153-.706.723.328,1.2,1.074,1.87,1.5,2,.774,4.2-.4,6.143.912a.788.788,0,0,1-.023.967c-2.646,1.08-5.393.609-8.1.714-1.148.045-2.3,0-3.448.036-1.732-.121-3.491.213-5.195-.4a1.142,1.142,0,0,1-.553-.811,1.1,1.1,0,0,1,1-.888,15.63,15.63,0,0,1,1.706-.058H118c.626,0,1.256-.007,1.874.019a1.944,1.944,0,0,1,.447.075c-.2-.215-.444-.03-.669-.1-.773-.007-1.535,0-2.3,0a12.383,12.383,0,0,1-2.485-.126.956.956,0,0,1-.618-1.126" transform="translate(-3.334 -0.131)" fill="#e05b2d"/>
      <path id="Path_23" data-name="Path 23" d="M90.315,4.48c.452-.05.407-1.261,1.123-.673a1.5,1.5,0,0,0,1.738-.05c2.24-1.089,4.531-.337,6.79-.328.861,0,.624.679.083,1.123-.318.357-.856-.544-1.094.266A3.569,3.569,0,0,0,97.6,6.369a1.709,1.709,0,0,1-.561.485,2.591,2.591,0,0,1-2.084-.145c-.16-.009-.323-.011-.485-.006.055.044.118.01.2.025a1.132,1.132,0,0,1,.611.227c.036.135.063.26.091.4a1,1,0,0,1-.4.671,3.28,3.28,0,0,1-1.478.361c-.512.032-1.022.031-1.534.032a12.305,12.305,0,0,1-1.525-.06,2.265,2.265,0,0,1-1.047-.389,1.027,1.027,0,0,1-.312-.676c.1-.5.529-.75.675-1.215a1.517,1.517,0,0,1,.574-1.595" transform="translate(-2.602 -0.092)" fill="#e05b2d"/>
      <path id="Path_24" data-name="Path 24" d="M125.341,4.475a13.8,13.8,0,0,1,6.437-.353c.471.4,1.094.36,1.578.728a1.11,1.11,0,0,1,.308.686,4.952,4.952,0,0,1-.775,1.744,2.281,2.281,0,0,1-.467.565.5.5,0,0,1-.6-.147l.027-.013c-1.612-.747-3.3-.474-4.964-.465-1.08-.483-2.217-.922-1.54-2.745" transform="translate(-3.656 -0.113)" fill="#e05b2d"/>
      <path id="Path_25" data-name="Path 25" d="M113.867,7.777c0,.161.01.322.017.484a1.286,1.286,0,0,1-.61.619,21.237,21.237,0,0,1-2.867.548,2.7,2.7,0,0,1-.868-.076c-2.969-.508-6.015.5-8.952-.631-.538-.47-.3-.929.011-1.391a3.639,3.639,0,0,1,2.661-1.055,37.5,37.5,0,0,1,6.139.166,2.168,2.168,0,0,1,.816.564l2,.091c.739-.4,1.239-.01,1.648.68" transform="translate(-2.929 -0.182)" fill="#e05b2d"/>
      <path id="Path_26" data-name="Path 26" d="M23.768,1.918c1.486-.9,1.97-.664,4.2-.818,1.153-.081,2.3-.136,3.466-.125a5.976,5.976,0,0,1,2.494.874.943.943,0,0,1,.119.793,2.172,2.172,0,0,1-.556.558,4.28,4.28,0,0,1-2.883.279c-2.255-.664-4.92,1.09-6.842-1.56" transform="translate(-0.694 -0.028)" fill="#e05b2d"/>
      <path id="Path_27" data-name="Path 27" d="M90.154,4.482c-.639.923.031,1.412.482,1.972-.685.414-1.466.172-2.173.431-.889-.187-1.788-.441-2.554.429a2.426,2.426,0,0,1-.675.275,1.831,1.831,0,0,1-1.407-.279c-.733-.965.163-1.485.438-2.176,1.741-2.268,2.381-2.42,4.375-.93.5.372,1.026.075,1.513.278" transform="translate(-2.441 -0.094)" fill="#e05b2d"/>
      <path id="Path_28" data-name="Path 28" d="M65.92,3.907c.264-.407.577-1.2.784-1.16,1.695.289,3.706-.65,4.941,1.576a.512.512,0,0,1,.693.193c.154.87-.415,1.006-.9,1.224-.888.17-1.783.3-2.673.482a3.061,3.061,0,0,1-.77-.051c-.854-.3-1.8-.218-2.58-.854-.43-.764.04-1.086.509-1.409" transform="translate(-1.906 -0.08)" fill="#e05b2d"/>
      <path id="Path_29" data-name="Path 29" d="M23.68,1.929c.527-.032,1.086-.147,1.52.3.588.6,1.112,1.57,1.806.15,1.047,1.23,2.664-.971,3.617.819a1.108,1.108,0,0,1-.475.827,3.084,3.084,0,0,0-.519.323l-1.193.35c-.1-.056-.192-.113-.288-.167a1.406,1.406,0,0,0-1.186-.392c-.966.256-1.953.918-2.837-.221l-.62-.225c-.412-.279-.9-.027-1.318-.244-.558-.261-1.213-.357-1.439-1.175a.991.991,0,0,1,.425-.724,1.491,1.491,0,0,1,1.894.384l.614,0" transform="translate(-0.606 -0.04)" fill="#e05b2d"/>
      <path id="Path_30" data-name="Path 30" d="M46.789,4.389a3.521,3.521,0,0,1-.23-.532c-.214-.829-1.514-.991-1.367-1.124,1.065-.956-.887-.785-.331-1.412,1.426.128,2.947-.7,4.259.581.481.525,1.638.371,1.284,1.737a.465.465,0,0,1-.616.256,1.619,1.619,0,0,0-1.34-.414,2.031,2.031,0,0,1,1.175.288c.293.279.689.455.7,1-.383.9-1.042.883-1.747.714-.55-.466-1.376-.324-1.789-1.1" transform="translate(-1.308 -0.034)" fill="#e05b2d"/>
      <path id="Path_31" data-name="Path 31" d="M48.606,5.055c.6-.011,1.246.216,1.7-.489a1.477,1.477,0,0,1,1.264-.7,3.09,3.09,0,0,1,.688.044,5.631,5.631,0,0,0,1.278.258c.41-.187.737-.581,1.194-.646,2.646-.387,1.057,1.68,1.179,2.762a1.481,1.481,0,0,1-.568.583,7.509,7.509,0,0,1-2.707.3,5.335,5.335,0,0,1-.787-.04,6.041,6.041,0,0,1-1.159-.246c-.855-.341-1.817-.292-2.584-.956-.158-.074-.315-.15-.471-.227-.084-1.062.439-.869.978-.645" transform="translate(-1.391 -0.101)" fill="#e05b2d"/>
      <path id="Path_32" data-name="Path 32" d="M49.088,14.258c.055,1.3-2.164.592-1.547,2.388-1.2-.309-1.681,1.421-2.8,1.358-.157-.2-.314-.4-.471-.6-.328-.769-1.335-1.339-.527-2.442L45.3,14.86c1.226-.515,2.371-1.727,3.788-.6" transform="translate(-1.269 -0.403)" fill="#e05b2d"/>
      <path id="Path_33" data-name="Path 33" d="M34.224,2.289l-.016-.22.027-.219c-.078-1.152.606-.841.985-.558a3.055,3.055,0,0,0,3.212.452,1.757,1.757,0,0,1,1.345.964.9.9,0,0,1-.177.685,1.954,1.954,0,0,1-.874.379,2.35,2.35,0,0,0-1.091.486,5.653,5.653,0,0,1-1.222,1.061.527.527,0,0,1-.555-.217l-.075-.225.075-.225c-.152-.384-.476-.54-.752-.759-.409-.448-.926-.815-.882-1.6" transform="translate(-0.999 -0.03)" fill="#e05b2d"/>
      <path id="Path_34" data-name="Path 34" d="M45.818,69.892c-1.281.45-2.744-.47-3.93.711-1.681.454-3.216-.609-4.851-.636-.257-.184-.246-.368,0-.552,1.425-.418,2.867.382,4.291-.084.993-.679,2.178.17,3.168-.543l.654-.026c.282.329.741.516.668,1.131" transform="translate(-1.077 -2.009)" fill="#e05b2d"/>
      <path id="Path_35" data-name="Path 35" d="M71.409,5.205c.438-.034.876-.07,1.114-.606q.134-.186.267-.374c.766-.5,1.62-.24,2.428-.382.8.116,1.591-.228,2.395-.1l.218.02.352.094c.582.254,1.186.493.823,1.471a3.447,3.447,0,0,1-2.294.883,3.078,3.078,0,0,0-1.951-.025,4.152,4.152,0,0,1-.687.2,3.284,3.284,0,0,1-2.542-.38.8.8,0,0,1-.124-.8" transform="translate(-2.085 -0.108)" fill="#e05b2d"/>
      <path id="Path_36" data-name="Path 36" d="M171.883,11.6a2.234,2.234,0,0,1-2.346-1.57c1.129-.348,1.675-1.983,3.132-1.522,0,.641-.708,1.457.333,1.843.347,1.293-.893.652-1.118,1.249" transform="translate(-4.953 -0.246)" fill="#e05b2d"/>
      <path id="Path_37" data-name="Path 37" d="M149.717,6.955c-.045-.739-.373-1.117-1.019-1.125a1.085,1.085,0,0,1-1.111-.664c1.659-1.383,3.352-.681,5.042-.113-.393,1.225-1.442,1.515-2.248,2.152a.618.618,0,0,1-.664-.25" transform="translate(-4.312 -0.127)" fill="#e05b2d"/>
      <path id="Path_38" data-name="Path 38" d="M107.948,4.5l.565.042a4.54,4.54,0,0,0,.539.553c.447.316.857.651.639,1.386a1.11,1.11,0,0,1-.761.254c-1.869-.007-3.733.006-5.6-.006a1.367,1.367,0,0,1-.855-.249c-.188-.744-.315-1.443.686-1.373l.983.26a6.307,6.307,0,0,0,3.8-.868" transform="translate(-2.99 -0.131)" fill="#e05b2d"/>
      <path id="Path_39" data-name="Path 39" d="M103.025,5.106c-.55.162-.547.639-.478,1.151a3.872,3.872,0,0,1-4.861-.392c-.074-1.257.85-1.112,1.457-1.411a6.374,6.374,0,0,0,1.246.5,2.474,2.474,0,0,0,1.8-.243c.358-.224.666-.059.835.39" transform="translate(-2.854 -0.13)" fill="#e05b2d"/>
      <path id="Path_40" data-name="Path 40" d="M48.423,5.062c-.372.12-.8.127-.978.645l-2.687.019c-.829-.609-1.8.285-2.625-.33a1.55,1.55,0,0,1-.759-1.476.437.437,0,0,1,.446-.2c.16.038.24.083.24.135,1.465,1.013,3.042.866,4.63.61.6.11,1.3-.188,1.734.6" transform="translate(-1.208 -0.108)" fill="#e05b2d"/>
      <path id="Path_41" data-name="Path 41" d="M158.048,7.713c-.918-.117-1.939.4-2.718-.587a1.443,1.443,0,0,0,0-.7l-.617-.653c1.124-.929,2.212.291,3.325.076.871.616.826,1.24.009,1.867" transform="translate(-4.52 -0.158)" fill="#e05b2d"/>
      <path id="Path_42" data-name="Path 42" d="M77.627,3.719a3.368,3.368,0,0,1-2.441.731,3.073,3.073,0,0,0-2.507-.106l-.142.233-.7-.249c.761-2.017,2.442-1.008,3.667-1.34a2.126,2.126,0,0,1,2.121.731" transform="translate(-2.099 -0.086)" fill="#e05b2d"/>
      <path id="Path_43" data-name="Path 43" d="M108,4.479c-.119.486-.161,1.135-.715,1.142-1.031.014-2.109.533-3.088-.274.5-.714,1.5-.242,1.983-1.371.287-.668,1.2.23,1.82.5" transform="translate(-3.044 -0.109)" fill="#e05b2d"/>
      <path id="Path_44" data-name="Path 44" d="M37.512,16.772c-.1-.632-.212-1.238-.937-1.221-1.157.025-2.314.04-3.472.058a4.2,4.2,0,0,1,3.045-1.08,11.7,11.7,0,0,0,1.806.3,1.513,1.513,0,0,1,.817,1.767.751.751,0,0,1-.961.451l-.3-.274" transform="translate(-0.967 -0.423)" fill="#e05b2d"/>
      <path id="Path_45" data-name="Path 45" d="M125.3,4.491c-.07,1.389,1.053,1.743,1.637,2.565a2.081,2.081,0,0,1-2.054.121c-.322-.753-1.3-.992-1.2-2.082.357-.856,1-.687,1.612-.6" transform="translate(-3.614 -0.129)" fill="#e05b2d"/>
      <path id="Path_46" data-name="Path 46" d="M18.624,1.964a1.252,1.252,0,0,0-.5-.172.768.768,0,0,1,0-1.1c.386-.225.685-.858,1.155-.648a4.32,4.32,0,0,0,3.079.344c.281-.08.544.467.589.917-1.163.389-2.417.285-3.541.888a1.254,1.254,0,0,1-.791-.227" transform="translate(-0.523 0)" fill="#e05b2d"/>
      <path id="Path_47" data-name="Path 47" d="M150.4,6.945c.154-1.663,1.718-.948,2.312-1.871l.89.759a4.492,4.492,0,0,0-.536,1.861c-.6.339-1.193-.1-1.793-.043a1.078,1.078,0,0,1-.874-.707" transform="translate(-4.394 -0.148)" fill="#e05b2d"/>
      <path id="Path_48" data-name="Path 48" d="M23.033,3.939c-1.2-.549-2.178.565-3.3.607-.686.253-1.5.983-1.676-.629.348-.657.967-.773,1.514-1.036a2.32,2.32,0,0,1,.71-.135,5.712,5.712,0,0,1,.7.166c.469.053.961-.089,1.4.224a1.36,1.36,0,0,1,1.04.593,2.113,2.113,0,0,0-.391.21" transform="translate(-0.528 -0.08)" fill="#e05b2d"/>
      <path id="Path_49" data-name="Path 49" d="M46.483,12.843l-1.029-.025a1.289,1.289,0,0,1,.513-1.7,10.7,10.7,0,0,0,4.224-.283c.055.131.111.263.167.394-.212.916-.948.771-1.493,1.011a3.516,3.516,0,0,0-2.381.6" transform="translate(-1.324 -0.316)" fill="#e05b2d"/>
      <path id="Path_50" data-name="Path 50" d="M49.335,9.8l2.122-.248A1.7,1.7,0,0,1,53.066,9.2a1.52,1.52,0,0,1,.7.517,2.043,2.043,0,0,1,.014,1.831.954.954,0,0,1-1.053.343C52.1,11,51.036,11.077,50.3,10.426c-.3-.242-.848.014-.96-.63" transform="translate(-1.441 -0.266)" fill="#e05b2d"/>
      <path id="Path_51" data-name="Path 51" d="M114.226,7.765a2.909,2.909,0,0,1-1.648-.68c-.028-1.434.814-1.315,1.63-1.245a.833.833,0,0,0,.59.748c.249.169.535.279.684.6a.392.392,0,0,1-.283.473l-.973.1" transform="translate(-3.289 -0.169)" fill="#e05b2d"/>
      <path id="Path_52" data-name="Path 52" d="M38.726,16.629l-.625-1.8c.9-.067,1.825-.555,2.69.172.253,1.008-.523,1.324-.928,1.891a1.22,1.22,0,0,1-.65.213.647.647,0,0,1-.486-.477" transform="translate(-1.113 -0.427)" fill="#e05b2d"/>
      <path id="Path_53" data-name="Path 53" d="M39.8,2.86c-.365-.443-1.037-.417-1.239-1.11.6-.927,1.137-.3,1.68.1.643-.415.832.428,1.258.615.3.149,1.1-.12.473.787-.786.329-1.6.9-2.173-.4" transform="translate(-1.127 -0.037)" fill="#e05b2d"/>
      <path id="Path_54" data-name="Path 54" d="M78.027,3.729c1.359-1,2.717-1.989,4.051.046a1.453,1.453,0,0,1-.6.585c-1.079.5-2.083-.075-3.112-.3-.114-.109-.226-.218-.337-.331" transform="translate(-2.28 -0.075)" fill="#e05b2d"/>
      <path id="Path_55" data-name="Path 55" d="M39.633,16.662c-.03-.978.8-1.1,1.2-1.647l1.143.481c.714.427,1.777.6,1.125,2.046a.735.735,0,0,1-.812-.032.225.225,0,0,1-.336-.081,1.487,1.487,0,0,0-1.822-.371.54.54,0,0,1-.5-.4" transform="translate(-1.158 -0.438)" fill="#e05b2d"/>
      <path id="Path_56" data-name="Path 56" d="M50.306,7.806c-.8,1.022-1.9.385-2.83.683l-1-.1a.316.316,0,0,1,.046-.552c.742-.159.742-.159,1.522-1.537a1.6,1.6,0,0,1,1.075-.036,2.655,2.655,0,0,1,1.189,1.545" transform="translate(-1.354 -0.18)" fill="#e05b2d"/>
      <path id="Path_57" data-name="Path 57" d="M43.15,17.422c.083-.992-.857-1.192-1.1-1.931.534-.244.976-.911,1.654-.492,0,.483-.013.96.487,1.175s.463.715.457,1.2a.952.952,0,0,1-1.5.05" transform="translate(-1.229 -0.434)" fill="#e05b2d"/>
      <path id="Path_58" data-name="Path 58" d="M54.7,3.31a1.694,1.694,0,0,0,.035.524c-.5.256-.112,1.845-1.251,1.125-.177-.39-.338-.811-.83-.541l-.629.075a1.9,1.9,0,0,1-.7-.934.9.9,0,0,1,.363-.692,2.021,2.021,0,0,1,1.083-.225,3.261,3.261,0,0,1,1.407.486l.522.182" transform="translate(-1.5 -0.077)" fill="#e05b2d"/>
      <path id="Path_59" data-name="Path 59" d="M58.692,3.28a.855.855,0,0,0,.547-.732c.443-.024.888-.017,1.327-.082.846-.125,1.377.232,1.532,1.244-.071.107-.141.213-.211.32-.561.16-1.141.2-1.7.353a2.006,2.006,0,0,1-1.067-.107.78.78,0,0,1-.423-1" transform="translate(-1.713 -0.071)" fill="#e05b2d"/>
      <path id="Path_60" data-name="Path 60" d="M36.935,69.423a4.368,4.368,0,0,0,0,.552c-1.113-.057-2.267.319-3.581-.391.632-.773,1.2-.474,1.728-.4.617.086,1.236.16,1.853.239" transform="translate(-0.975 -2.018)" fill="#e05b2d"/>
      <path id="Path_61" data-name="Path 61" d="M63.157,3.831c.517,1.547-.471,1.318-1.2,1.391-.646.47-1.234.528-1.695-.322.149-1.1,1.006-.638,1.518-.936q.185-.109.368-.224c.352-.2.712-.511,1.012.091" transform="translate(-1.761 -0.101)" fill="#e05b2d"/>
      <path id="Path_62" data-name="Path 62" d="M46.518,12.868a1.672,1.672,0,0,1,2.212-1.075c.3.353.9.009,1.086.633-.838.912-1.936.136-2.842.6a1.426,1.426,0,0,1-.456-.158" transform="translate(-1.359 -0.342)" fill="#e05b2d"/>
      <path id="Path_63" data-name="Path 63" d="M134.072,4.049q.026.564.051,1.127-.183.271-.387.2c-.141-.045-.211-.1-.211-.15-.6-.2-1.524.2-1.547-1.108a4.507,4.507,0,0,1,2.094-.075" transform="translate(-3.856 -0.116)" fill="#e05b2d"/>
      <path id="Path_64" data-name="Path 64" d="M29.895,4.406l.534-.629a6.975,6.975,0,0,1,3.4-.158.848.848,0,0,1,.312.863c-1.421.451-2.831-.065-4.246-.076" transform="translate(-0.873 -0.102)" fill="#e05b2d"/>
      <path id="Path_65" data-name="Path 65" d="M29.267,17.447a1.28,1.28,0,0,1,.552-1.333c.692.4,1.4-.607,2.094.033a1.006,1.006,0,0,1,.022,1.344l-.619-.134a1.13,1.13,0,0,0-1.5.085l-.553,0" transform="translate(-0.855 -0.465)" fill="#e05b2d"/>
      <path id="Path_66" data-name="Path 66" d="M1.888,32.911q.055.665.11,1.33c-.438,0-.879.035-1.314,0-.343-.026-.758-.1-.672-.656.03-.193.354-.4.573-.459a10.113,10.113,0,0,1,1.3-.215" transform="translate(0 -0.961)" fill="#e05b2d"/>
      <path id="Path_67" data-name="Path 67" d="M109.8,6.509c0-.231,0-.461,0-.692a1.211,1.211,0,0,1,.354-.661l.333-.1c.43-.32.823-.421,1.058.269.183.537.2.987-.4,1.189a2.843,2.843,0,0,0-.651.452L109.751,7q-.315-.294.051-.49" transform="translate(-3.202 -0.14)" fill="#e05b2d"/>
      <path id="Path_68" data-name="Path 68" d="M39.8,2.908a4.137,4.137,0,0,0,2.173.4c0,.176,0,.35.007.526l-.588.041a8.7,8.7,0,0,1-1.012,1.1L38.7,5.462l-.037-.18.023-.183a.582.582,0,0,1-.151-.644A2.035,2.035,0,0,1,39,3.935a3.1,3.1,0,0,0,.768-.65v-.19Z" transform="translate(-1.125 -0.085)" fill="#e05b2d"/>
      <path id="Path_69" data-name="Path 69" d="M32.016,17.491l-.023-1.345c.218-.353.42-.328.61.035.12.62.467.793.937.566.717-.347.616.255.651.718l-2.175.025" transform="translate(-0.935 -0.464)" fill="#e05b2d"/>
      <path id="Path_70" data-name="Path 70" d="M18.088.708l0,1.1a6.284,6.284,0,0,1-1.243-.132A.833.833,0,0,1,16.35,1.1c-.03-.581.428-.459.721-.48a6.437,6.437,0,0,1,1.016.083" transform="translate(-0.478 -0.018)" fill="#e05b2d"/>
      <path id="Path_71" data-name="Path 71" d="M158.148,7.724a2.3,2.3,0,0,0-.009-1.867l1.047-.077c.626,1.77.626,1.77-1.039,1.944" transform="translate(-4.62 -0.169)" fill="#e05b2d"/>
      <path id="Path_72" data-name="Path 72" d="M19.207,1.965c1.136-1.253,2.518-.478,3.788-.626a.868.868,0,0,1,.027.588l-2.171.124a1.254,1.254,0,0,1-.843.361,1.415,1.415,0,0,1-.588-.188c-.072-.085-.143-.173-.214-.259" transform="translate(-0.561 -0.036)" fill="#e05b2d"/>
      <path id="Path_73" data-name="Path 73" d="M134.8,5.378l2.221-.322,1.043.216-1.12,1.179a.733.733,0,0,1-.584.222,3.962,3.962,0,0,1-1.5-.632.581.581,0,0,1-.061-.662" transform="translate(-3.936 -0.147)" fill="#e05b2d"/>
      <path id="Path_74" data-name="Path 74" d="M50.33,3.757c.082-.966-.8-1.158-1.08-1.833.708.031,1.415.064,2.122.094a.81.81,0,0,1,.059,1.162l-.147.235c-.252.362-.469.864-.954.342" transform="translate(-1.439 -0.056)" fill="#e05b2d"/>
      <path id="Path_75" data-name="Path 75" d="M83.088,5.734l-.939.179a1.139,1.139,0,0,1-.5-.659,1.81,1.81,0,0,1,.2-1.306.9.9,0,0,1,.331-.14c.51.1,1.276-.482,1.375.706-.349.3-.26.841-.468,1.22" transform="translate(-2.384 -0.109)" fill="#e05b2d"/>
      <path id="Path_76" data-name="Path 76" d="M183.261,73.344l-1.252-.169c.769-.588,1.51-.844,2.174.054l-.921.115" transform="translate(-5.318 -2.122)" fill="#e05b2d"/>
      <path id="Path_77" data-name="Path 77" d="M35.87,5.727c.565.144,1.272-.146,1.6.713a2.5,2.5,0,0,1-1.841.025c-.213-.05-.631.023-.456-.444.067-.182.452-.2.692-.294" transform="translate(-1.027 -0.167)" fill="#e05b2d"/>
      <path id="Path_78" data-name="Path 78" d="M40.433,5c.021-.762.371-1.114,1.012-1.1q.266.619.534,1.237l-.564.14L40.433,5" transform="translate(-1.181 -0.114)" fill="#e05b2d"/>
      <path id="Path_79" data-name="Path 79" d="M65.377,5.061c-.794.173-1.134-.244-1.1-1.15l1.612.03-.515,1.12" transform="translate(-1.878 -0.114)" fill="#e05b2d"/>
      <path id="Path_80" data-name="Path 80" d="M19.721,3.277c-.413.735-1.1.483-1.678.642a.409.409,0,0,1-.379-.151c-.235-.535.05-.71.42-.827a7.686,7.686,0,0,1,1.063-.124,1.059,1.059,0,0,1,.573.461" transform="translate(-0.514 -0.082)" fill="#e05b2d"/>
      <path id="Path_81" data-name="Path 81" d="M18.161,3.129c-.175.21-.348.42-.52.63-.41-.115-1.012-.262-.883-.8.18-.754.819-.308,1.277-.284q.431.086.127.454" transform="translate(-0.489 -0.073)" fill="#e05b2d"/>
      <path id="Path_82" data-name="Path 82" d="M52.54,1.963q.026.591.053,1.181l-1.1.038-.058-1.163,1.1-.056" transform="translate(-1.503 -0.057)" fill="#e05b2d"/>
      <path id="Path_83" data-name="Path 83" d="M171.954,11.66c-.077-.965,1.059-.45,1.118-1.249.75,0,.56.663.606,1.161a2.436,2.436,0,0,1-1.724.088" transform="translate(-5.024 -0.304)" fill="#e05b2d"/>
      <path id="Path_84" data-name="Path 84" d="M39.262,6.463l0-.311-.009-.312c.438-.048,1.04-.076.924.6-.127.742-.593.433-.919.026" transform="translate(-1.147 -0.17)" fill="#e05b2d"/>
      <path id="Path_85" data-name="Path 85" d="M41.549,2.469c-.53.1-.874-.314-1.257-.615l.6-.611c.534.18.552.732.652,1.226" transform="translate(-1.177 -0.036)" fill="#e05b2d"/>
      <path id="Path_86" data-name="Path 86" d="M83.126,5.757c-.227-.607-.516-1.246.468-1.22q.084.293.147.593l-.615.627" transform="translate(-2.422 -0.132)" fill="#e05b2d"/>
      <path id="Path_87" data-name="Path 87" d="M36.395,66.835c.615-.043,1.253-.187,1.692.532a1.733,1.733,0,0,1-1.692-.532" transform="translate(-1.063 -1.951)" fill="#e05b2d"/>
      <path id="Path_88" data-name="Path 88" d="M34.27,4.484l.02-.275-.009-.276c.066-.093.131-.185.2-.278a.61.61,0,0,1,.829.179c.185.3.369.593.555.89L34.27,4.484" transform="translate(-1.001 -0.104)" fill="#e05b2d"/>
      <path id="Path_89" data-name="Path 89" d="M103.509,3.623c.153-.055.345-.2.439-.14a.661.661,0,0,1,.186.492c-.013.285-.184.344-.356.135a2.96,2.96,0,0,1-.269-.487" transform="translate(-3.024 -0.101)" fill="#e05b2d"/>
      <path id="Path_90" data-name="Path 90" d="M59.247,2.583c-.562-.133-1.292.339-1.627-.614.615-.06,1.259-.222,1.627.614" transform="translate(-1.683 -0.056)" fill="#e05b2d"/>
      <path id="Path_91" data-name="Path 91" d="M31.968,13.6l.7.344a2.3,2.3,0,0,1-.471.256.493.493,0,0,1-.661-.29,4.465,4.465,0,0,1,.431-.31" transform="translate(-0.921 -0.397)" fill="#e05b2d"/>
      <path id="Path_92" data-name="Path 92" d="M26.985,7.585l.59.155a1.807,1.807,0,0,1-.055.3c-.142.4-.5.933-.707.78-.533-.4-.1-.853.172-1.239" transform="translate(-0.776 -0.221)" fill="#e05b2d"/>
      <path id="Path_93" data-name="Path 93" d="M108.814,5.261c-.038-.24-.077-.48-.115-.719.629-.038,1.314-.342,1.76.5l-.136.106a1.177,1.177,0,0,1-1.51.111" transform="translate(-3.176 -0.13)" fill="#e05b2d"/>
      <path id="Path_94" data-name="Path 94" d="M56.892,2.067c-.514.674-1.008.708-1.476-.063a2.112,2.112,0,0,1,1.476.063" transform="translate(-1.619 -0.055)" fill="#e05b2d"/>
      <path id="Path_95" data-name="Path 95" d="M175.166,10.168c-.113-.073-.314-.126-.343-.241a.919.919,0,0,1,.282-1.029,2.187,2.187,0,0,1,.243.5c.055.269.152.586-.182.766" transform="translate(-5.106 -0.26)" fill="#e05b2d"/>
      <path id="Path_96" data-name="Path 96" d="M32.848,60.147H29.612c-.236-.113-.624-.166-.677-.349-.157-.551.178-1.229-.364-1.713a3.479,3.479,0,0,0-2.206-.537c-1.78-.2-1.8-.015-3.395-1.786,3.444,0,6.715.008,9.984,0,4.324-.013,8.61.844,12.973.447a15.31,15.31,0,0,1,5.248.513c1.229.334,1.769.119,1.451-1.454-.077-.377.034-.64.349-.665.423-.035.663.185.526.748-.328,1.356.331,1.637,1.3,1.656,1.374.028,2.925.752,3.6-1.686.59,1.849,1.758,2.258,2.89,1.919,2.35-.7,4.692-.152,6.97.075,1.282.127,2.175-1.05,3.211-.643a6.792,6.792,0,0,0,3.1.633c5.443-.444,10.9-.283,16.347-.281,1.023,0,2.184-.467,3,.788.161.248.535.314.6-.081.293-1.824,1.415-.916,2.295-1.119,3.642-.844,7.315.167,10.959-.434,1.689-.278,2.151.413,2.2,2.509.01.419.015.84,0,1.258-.083,2.013-.4,2.5-1.882,1.813-1.632-.756-3.1.372-4.73.011a8.637,8.637,0,0,0-3.328-.17c-1.553.324-2.3-.578-3.374-2.173-.048,2.171-.831,2.791-2.2,2.641-.683-.076-1.453-.262-2.067.368-.337.346-.607.391-.778-.163a1.034,1.034,0,0,0-1.546-.742c-1.837.827-3.731.446-5.6.5a77.021,77.021,0,0,0-9.619.429,5.627,5.627,0,0,1-4.17-.457c-.876-.576-1.755.071-2.638.05-4.917-.114-9.851.333-14.746-.432a37.143,37.143,0,0,0-5.372-.193,46.382,46.382,0,0,1-13.423-1.912c-.731-.228-.973.873-1.641.64" transform="translate(-0.671 -1.595)" fill="#e05b2d"/>
      <path id="Path_97" data-name="Path 97" d="M35.888,20.126a7.489,7.489,0,0,0,1.58-.162c.845-.267.644-.741.073-1.19a.742.742,0,0,1,.374-.975c.82-.354,1.579.125,2.367.236,1.482.8,1.5.906.37,2.555l-4.191.057-.573-.521" transform="translate(-1.049 -0.516)" fill="#e05b2d"/>
      <path id="Path_98" data-name="Path 98" d="M182.664,66.6c-.188.549-.6.854-1.04.759-.76-.163-1.517.638-2.247-.039a.461.461,0,0,1-.042-.283c.812-.34,1.516-1.082,2.44-.981.321.036.737.044.889.544" transform="translate(-5.239 -1.929)" fill="#e05b2d"/>
      <path id="Path_99" data-name="Path 99" d="M46.067,69.892c-.273-.337-.783-.482-.668-1.131l1.964.074c.14,1.307-.8.8-1.3,1.057" transform="translate(-1.326 -2.009)" fill="#e05b2d"/>
      <path id="Path_100" data-name="Path 100" d="M15.3,54.045c-.38-.056-.455-.334-.429-.642.028-.338.189-.593.514-.447.233.106.615.316.612.473-.008.488-.453.469-.7.615" transform="translate(-0.434 -1.546)" fill="#e05b2d"/>
      <path id="Path_101" data-name="Path 101" d="M187.548,72.626c-.567-.1-1.177.166-1.817-.34.742-.393,1.324-.445,1.81.343Z" transform="translate(-5.427 -2.104)" fill="#e05b2d"/>
      <path id="Path_102" data-name="Path 102" d="M169.209,43.133c-1.7,2.244-3.549,1.226-5.047,1.758-.365.13-.454-.559-.3-.937a1.268,1.268,0,0,1,1.08-.8c1.254-.066,2.512-.023,4.267-.023" transform="translate(-4.785 -1.26)" fill="#e05b2d"/>
      <path id="Path_103" data-name="Path 103" d="M192.859,21.369c-1.138-.931-.757-2.149-.778-3.959,1.1,1.545-.028,2.991.778,3.959" transform="translate(-5.611 -0.508)" fill="#e05b2d"/>
      <path id="Path_104" data-name="Path 104" d="M165.2,30.2c.37.147.842.225.833.67-.012.577-.475.781-.93.807-.373.021-.88-.3-.8-.552.124-.392.591-.635.9-.924" transform="translate(-4.8 -0.882)" fill="#e05b2d"/>
      <path id="Path_105" data-name="Path 105" d="M193.755,19.409a1.825,1.825,0,0,1,1.874.554c-.645.388-1.2.21-1.874-.554" transform="translate(-5.661 -0.564)" fill="#e05b2d"/>
      <path id="Path_106" data-name="Path 106" d="M182.676,14.05c.09.135.264.279.249.391a1.02,1.02,0,0,1-.663.868c-.121.046-.435-.143-.431-.171a1.427,1.427,0,0,1,.845-1.088" transform="translate(-5.313 -0.41)" fill="#e05b2d"/>
      <path id="Path_107" data-name="Path 107" d="M55.526,23.79c-.274-.038-.4-.186-.325-.384.187-.474.445-.889.952-.909.049,0,.149.156.145.236a1.146,1.146,0,0,1-.772,1.057" transform="translate(-1.612 -0.657)" fill="#e05b2d"/>
      <path id="Path_108" data-name="Path 108" d="M176.983,46.9c-.094-.134-.274-.286-.253-.377.1-.443.465-.533.777-.682.191-.091.4-.021.4.2-.017.675-.555.657-.923.861" transform="translate(-5.164 -1.338)" fill="#e05b2d"/>
      <path id="Path_109" data-name="Path 109" d="M163.775,30.965a.779.779,0,0,1-.357-.352c-.116-.335.107-.6.389-.454.179.088.282.416.388.655.129.29.043.384-.42.151" transform="translate(-4.774 -0.88)" fill="#e05b2d"/>
      <path id="Path_110" data-name="Path 110" d="M25.192,42.408a.453.453,0,0,1-.556-.386c-.083-.39.192-.478.44-.468.15.006.382.09.424.213a.51.51,0,0,1-.308.642" transform="translate(-0.719 -1.214)" fill="#e05b2d"/>
      <path id="Path_111" data-name="Path 111" d="M16.463,43.1c.054-1.2.382-1.638,1.192-1.49-.141.856-.851.717-1.192,1.49" transform="translate(-0.481 -1.215)" fill="#e05b2d"/>
      <path id="Path_112" data-name="Path 112" d="M110.355,28.31c.141.083.507.16.557.35.182.692-.36.437-.6.468-.123.016-.552.355-.474-.259.036-.286.112-.56.519-.559" transform="translate(-3.209 -0.827)" fill="#e05b2d"/>
      <path id="Path_113" data-name="Path 113" d="M145.949,54.033c.086.082.283.176.3.3.047.376-.169.43-.428.334-.154-.057-.3-.135-.455-.2.128-.249.265-.481.584-.431" transform="translate(-4.247 -1.578)" fill="#e05b2d"/>
      <path id="Path_114" data-name="Path 114" d="M34.755,41.973a.275.275,0,0,1-.111-.459,1.534,1.534,0,0,1,.4-.271c.041.166.153.376.1.485-.058.128-.258.167-.4.245" transform="translate(-1.01 -1.205)" fill="#e05b2d"/>
      <path id="Path_115" data-name="Path 115" d="M125.849,10.817c-.2-1.709-1.023-.666-1.645-.51a1.229,1.229,0,0,1-.18-.849c.476-1.081,1.343-.56,2.052-.681a2.611,2.611,0,0,0,2.142.018c1.349-.12,2.7.172,4.052-.033a1.7,1.7,0,0,1,.845.91,1.364,1.364,0,0,1-.825,1.812c-.982.008-2.158.713-2.668-1.017-.022-.075-.145-.71-.449-.149-.933,1.713-2.216.316-3.323.5" transform="translate(-3.623 -0.255)" fill="#e05b2d"/>
      <path id="Path_116" data-name="Path 116" d="M147.213,11.081c-.571.7-1.317.537-2.017.537-3.483,0-6.967-.023-10.451-.039a.782.782,0,0,1,.039-.772,3.206,3.206,0,0,1,1.975-.776,2.167,2.167,0,0,0,1.837-.5.932.932,0,0,1,.657.045,2.193,2.193,0,0,0,2.586.035.761.761,0,0,1,.655.025,2.758,2.758,0,0,0,1.912.6,8.3,8.3,0,0,1,1.855.1,1.391,1.391,0,0,1,.952.743" transform="translate(-3.934 -0.277)" fill="#e05b2d"/>
      <path id="Path_117" data-name="Path 117" d="M146.455,9.2l4.67-.029c.738.464,1.635-.05,2.356.52l.011.014c.267.467.388.9-.2,1.173a8.254,8.254,0,0,1-3.087-.017c-1.127-.467-2.3-.077-3.443-.241a.785.785,0,0,1-.542-.581,1.185,1.185,0,0,1,.232-.84" transform="translate(-4.272 -0.268)" fill="#e05b2d"/>
      <path id="Path_118" data-name="Path 118" d="M92.442,10.469a.438.438,0,0,1,.016.345l-6.517.166a.974.974,0,0,1-.733-.859,1.237,1.237,0,0,1,.38-.713c.715-.429,1.421-.109,2.129.037a2.28,2.28,0,0,0,1.9-.245,5.468,5.468,0,0,0,.552-1.307l1.657.059a2.431,2.431,0,0,1,.619,2.516" transform="translate(-2.49 -0.23)" fill="#e05b2d"/>
      <path id="Path_119" data-name="Path 119" d="M68.482,10.149l.714.086a.707.707,0,0,1,1.087.22c-1.088,2.08-2.772,1.888-4.48,1.6.093-.926-.757-.926-1.127-1.554,1.263-.664,2.7,1.379,3.805-.35" transform="translate(-1.89 -0.294)" fill="#e05b2d"/>
      <path id="Path_120" data-name="Path 120" d="M60.852,12.356l3.21-.113q.013.355.025.712l.008-.007c-.355.062-.792.081-.916.518-.268.943-.593,1.314-1.558.989a11.7,11.7,0,0,0-2.934-.25,1.242,1.242,0,0,1,.446-1.473,1.061,1.061,0,0,1,.99-.091c.188-.118.226.606.5.129a.362.362,0,0,1,.234-.415" transform="translate(-1.712 -0.357)" fill="#e05b2d"/>
      <path id="Path_121" data-name="Path 121" d="M153.508,10.877q.1-.587.2-1.173a3.72,3.72,0,0,1,2.7-.613c.325.645,1.281.757,1.124,1.811-.672-.034-1.35.792-2.016,0s-1.338-.1-2.007-.021" transform="translate(-4.485 -0.265)" fill="#e05b2d"/>
      <path id="Path_122" data-name="Path 122" d="M52.034,14.22l-.644-1.812c.794-.844,1.761-.2,2.629-.415a1.467,1.467,0,0,1,.707,2.159l-.643-.027a1.106,1.106,0,0,0-1.544.09.553.553,0,0,1-.506.006" transform="translate(-1.501 -0.349)" fill="#e05b2d"/>
      <path id="Path_123" data-name="Path 123" d="M54.81,14.141a3.209,3.209,0,0,0-.511-1.647c1.08-1.452,2.115-.779,3.146.088a.973.973,0,0,1,.052.973c-.881.3-1.7.935-2.688.586" transform="translate(-1.586 -0.34)" fill="#e05b2d"/>
      <path id="Path_124" data-name="Path 124" d="M61.468,20.139c-.552.164-.97.244-1.268-.326-.2-.379-.857-.556-.4-1.2a.624.624,0,0,1,.96-.141c.3.225.567.5.857.739s.77.391.658.834c-.15.594-.615-.006-.812.091" transform="translate(-1.743 -0.535)" fill="#e05b2d"/>
      <path id="Path_125" data-name="Path 125" d="M157.617,10.9c-.368-.61-1.394-.662-1.124-1.811,1.065.448,2.289.333,3.221,1.249-.752-.084-1.311.819-2.1.562" transform="translate(-4.571 -0.265)" fill="#e05b2d"/>
      <path id="Path_126" data-name="Path 126" d="M134.816,11.1q-.055.245-.134.482l-2.144-.075.623-1.73c.467-.529.887-.332,1.294.109a2.236,2.236,0,0,1,.361,1.214" transform="translate(-3.872 -0.276)" fill="#e05b2d"/>
      <path id="Path_127" data-name="Path 127" d="M82.976,9.239c.989.211,1.667,1.348,2.755,1.264a1.585,1.585,0,0,1,.144.516h-.008a1.793,1.793,0,0,1-1.771.061c-1.124.009-1.2-.851-1.12-1.842" transform="translate(-2.424 -0.27)" fill="#e05b2d"/>
      <path id="Path_128" data-name="Path 128" d="M40.342,18.007c-.681,1.407-1.476-.193-2.2.114a.613.613,0,0,1-.154-.661c.318-.384.859-.138,1.166-.556q.213-.1.428-.191l.21.167c.22.206.552.3.552.728,0,.133,0,.267,0,.4" transform="translate(-1.109 -0.488)" fill="#e05b2d"/>
      <path id="Path_129" data-name="Path 129" d="M160.317,10.377c1.063-1.26,1.725.146,2.542.52a2.723,2.723,0,0,1-2.542-.52" transform="translate(-4.684 -0.288)" fill="#e05b2d"/>
      <path id="Path_130" data-name="Path 130" d="M57.594,13.583l.059-.176-.021-.186a.7.7,0,0,1,.45-.629.91.91,0,0,1,1.016.441l-.441,1.182c-.426-.048-.862-.072-1.064-.632" transform="translate(-1.683 -0.367)" fill="#e05b2d"/>
      <path id="Path_131" data-name="Path 131" d="M64.246,12.976c.354.242.87.37.638,1.058-.037.108-.329.192-.467.145-.745-.256-.207-.784-.163-1.21Z" transform="translate(-1.871 -0.379)" fill="#e05b2d"/>
      <path id="Path_132" data-name="Path 132" d="M43.159,17.5l1.5-.05c.017.221.036.443.053.664-.82.065-1.656.226-2.34-.53l.787-.083" transform="translate(-1.238 -0.509)" fill="#e05b2d"/>
      <path id="Path_133" data-name="Path 133" d="M48.135,18.052c-.427,0-.882.223-1.254-.222.345-.488.812-.273,1.234-.3q.345.243.02.522" transform="translate(-1.37 -0.511)" fill="#e05b2d"/>
      <path id="Path_134" data-name="Path 134" d="M44.2,19.3c-.1.127-.2.369-.284.36a.483.483,0,0,1-.416-.591c.011-.083.3-.179.446-.149.1.021.172.246.255.38" transform="translate(-1.271 -0.552)" fill="#e05b2d"/>
      <path id="Path_135" data-name="Path 135" d="M84.132,11.134l1.77-.061a1.157,1.157,0,0,1-1.77.061" transform="translate(-2.458 -0.323)" fill="#e05b2d"/>
      <path id="Path_136" data-name="Path 136" d="M48.172,18.052c-.013-.174-.018-.349-.02-.522.427-.013.871-.128,1.238.272-.356.47-.8.3-1.217.25" transform="translate(-1.407 -0.511)" fill="#e05b2d"/>
      <path id="Path_137" data-name="Path 137" d="M150.2,7l.975.192a.72.72,0,0,1,.016,1.147l-7.448.028c-.035-.963.428-1.217,1.149-1.1a3.25,3.25,0,0,0,2.5-.041c.766.382,1.481-.016,2.211-.193L150.2,7" transform="translate(-4.2 -0.204)" fill="#e05b2d"/>
      <path id="Path_138" data-name="Path 138" d="M142.466,9.741c-1.352,1.67-1.352,1.67-3.344.091.221-.628.836-.282,1.166-.642l2.229.033a.359.359,0,0,1-.05.517" transform="translate(-4.065 -0.268)" fill="#e05b2d"/>
      <path id="Path_139" data-name="Path 139" d="M151.418,8.345,151.4,7.2c.64-.131,1.145.3,1.691.556-.4.8-1.059.62-1.677.59" transform="translate(-4.424 -0.209)" fill="#e05b2d"/>
      <path id="Path_140" data-name="Path 140" d="M153.629,9.691c-.778-.223-1.639.073-2.356-.52.818-.03,1.7-.462,2.356.52" transform="translate(-4.42 -0.264)" fill="#e05b2d"/>
      <path id="Path_141" data-name="Path 141" d="M155.331,6.454c.4.236.383.47,0,.7-.217-.083-.615-.148-.623-.255-.044-.535.387-.336.626-.447" transform="translate(-4.52 -0.188)" fill="#e05b2d"/>
      <path id="Path_142" data-name="Path 142" d="M126.311,9.073a1.955,1.955,0,0,0-2.295.617.717.717,0,0,1-.7.052c-.811-.244-1.772.173-2.43-.748a1.807,1.807,0,0,1-1.19-.526c3.165-.022,6.33-.018,9.5-.086.838-.017,1.784.364,2.47-.6a2.477,2.477,0,0,1,.515-.017,2.792,2.792,0,0,1,2.615-.749,1.735,1.735,0,0,1,1.2.747l-.009,1.116c-.092.138-.185.276-.278.415-1.194.758-2.315-.039-3.465-.227-1.465.315-2.936-.427-4.4.035a1.353,1.353,0,0,1-1.532-.034" transform="translate(-3.497 -0.203)" fill="#e05b2d"/>
      <path id="Path_143" data-name="Path 143" d="M136.4,7.717l-1.268-.16c-.384-.242-.885-.213-1.178-.678a2.664,2.664,0,0,1-.327-1.1l.008-.258-.062-.248.6-.055.6.17c0,.157.011.316.017.473.449.55,1.187.034,1.632.6q.248-.006.5,0c.879,1.007.152,1.118-.516,1.262" transform="translate(-3.903 -0.152)" fill="#e05b2d"/>
      <path id="Path_144" data-name="Path 144" d="M136.99,9.162l.446.5c.3.532.129.681-.348.58a3.1,3.1,0,0,1-2.219.846,1.128,1.128,0,0,1-.543-.829c.391-1.162,1.4-.648,2.072-1.037l.015-.275.578.22" transform="translate(-3.925 -0.261)" fill="#e05b2d"/>
      <path id="Path_145" data-name="Path 145" d="M147.428,7.231a1.632,1.632,0,0,1-2.5.041l2.5-.041" transform="translate(-4.235 -0.211)" fill="#e05b2d"/>
      <path id="Path_146" data-name="Path 146" d="M124.916,7.246a4.226,4.226,0,0,1,2.054-.121c2.027-.6,2.673-.514,4.868.645-1.919-.015-3.838-.036-5.756-.041a1.173,1.173,0,0,1-1.166-.482" transform="translate(-3.65 -0.197)" fill="#e05b2d"/>
      <path id="Path_147" data-name="Path 147" d="M120.252,7.654l-2.247,0c-.3-.279-.691-.5-.5-1.09l2.751.017a.688.688,0,0,1,0,1.076" transform="translate(-3.432 -0.191)" fill="#e05b2d"/>
      <path id="Path_148" data-name="Path 148" d="M120.336,7.655c0-.358,0-.717,0-1.076.084.019.2,0,.249.065.454.581,1.667-.581,1.571.619-.069.852-1.179.3-1.82.391" transform="translate(-3.516 -0.192)" fill="#e05b2d"/>
      <path id="Path_149" data-name="Path 149" d="M115.468,7.238c.578.079,1.2-.133,1.7.4l-1.894.066a3.781,3.781,0,0,0,.19-.466" transform="translate(-3.368 -0.211)" fill="#e05b2d"/>
      <path id="Path_150" data-name="Path 150" d="M98.613,7.142a2.65,2.65,0,0,1,2.182.545l-.516.586c-1.677.087-3.393.6-4.961-.586l-.1-.18.018-.216c1.079-1.5,2.282.82,3.379-.15" transform="translate(-2.782 -0.197)" fill="#e05b2d"/>
      <path id="Path_151" data-name="Path 151" d="M92.636,10.468c.348-1.025-1.356-1.361-.619-2.516l1.633-.11c0,.138-.011.277-.017.415-.848.42-.084,1.831-1,2.211" transform="translate(-2.683 -0.229)" fill="#e05b2d"/>
      <path id="Path_152" data-name="Path 152" d="M94.726,6.47c.008.216.016.434.022.65-.574-.075-1.187.152-1.73-.3.522-.5,1.143-.244,1.708-.352" transform="translate(-2.718 -0.189)" fill="#e05b2d"/>
      <path id="Path_153" data-name="Path 153" d="M93.687,8.253c0-.138.011-.277.017-.415l1.563-.12c-.383.753-1.022.482-1.579.535" transform="translate(-2.737 -0.225)" fill="#e05b2d"/>
      <path id="Path_154" data-name="Path 154" d="M88.1,7.055l1.113.183c0,.135,0,.27,0,.4l-1.6-.033a.459.459,0,0,1-.068-.6.391.391,0,0,1,.55.05" transform="translate(-2.556 -0.202)" fill="#e05b2d"/>
      <path id="Path_155" data-name="Path 155" d="M134.126,6.8l.975.791-2.552.163,0-.3.066-.292c.482-.249.84-1.212,1.514-.36" transform="translate(-3.873 -0.188)" fill="#e05b2d"/>
      <path id="Path_156" data-name="Path 156" d="M134.128,6.782l-1.514.36a2.886,2.886,0,0,1,.984-1.351,1.1,1.1,0,0,1,.53.991" transform="translate(-3.875 -0.169)" fill="#e05b2d"/>
      <path id="Path_157" data-name="Path 157" d="M35.386,17.461c0-.235,0-.47.007-.7a1.427,1.427,0,0,1,1.512.021l.675.055-.046-.029a.608.608,0,0,1,.141.709,2.169,2.169,0,0,1-1.119.955.894.894,0,0,1-.62-.329l-.548-.678" transform="translate(-1.034 -0.483)" fill="#e05b2d"/>
      <path id="Path_158" data-name="Path 158" d="M36.467,18.126l1.113-.7c.235-.216.39-.144.476.18a4.655,4.655,0,0,1,.043.534l-.542.624a.639.639,0,0,1-.407.15c-.6.179-.793-.125-.683-.787" transform="translate(-1.065 -0.505)" fill="#e05b2d"/>
      <path id="Path_159" data-name="Path 159" d="M36.453,18.151a1.189,1.189,0,0,0,.683.787c-.9.827-1.242.465-1.185-.753a1.588,1.588,0,0,1,.5-.034" transform="translate(-1.05 -0.53)" fill="#e05b2d"/>
      <path id="Path_160" data-name="Path 160" d="M32.006,18.922c-.228-.126-.424-.315-.3-.619.046-.109.306-.174.444-.136.267.074.366.327.264.638-.082.245-.232.278-.411.117" transform="translate(-0.925 -0.53)" fill="#e05b2d"/>
      <path id="Path_161" data-name="Path 161" d="M29.836,17.471c.461-.934.975-.611,1.5-.085l-1.5.085" transform="translate(-0.872 -0.493)" fill="#e05b2d"/>
      <path id="Path_162" data-name="Path 162" d="M34.215,3.8l-.426-1.346a.818.818,0,0,1,.422-.131c.472.38,1.237.465,1.08,1.472L34.215,3.8" transform="translate(-0.987 -0.068)" fill="#e05b2d"/>
      <path id="Path_163" data-name="Path 163" d="M85.25,7.689l-3.221,0c.066-.976.494-1,1.094-.566a.894.894,0,0,0,.484-.062l1.632.115q.4.248.011.518" transform="translate(-2.397 -0.2)" fill="#e05b2d"/>
      <path id="Path_164" data-name="Path 164" d="M85.347,7.694l.021-.26-.032-.258.681-.146,1.529.239c0,.116.009.23.014.345l-1.678.269-.534-.188" transform="translate(-2.493 -0.205)" fill="#e05b2d"/>
      <path id="Path_165" data-name="Path 165" d="M68.553,7.256l-5.388-.8c1.52-1.416,3.257-.415,4.888-.6a2.029,2.029,0,0,0,.374-.041.591.591,0,0,1,.4.522.859.859,0,0,1-.31.632Z" transform="translate(-1.845 -0.166)" fill="#e05b2d"/>
      <path id="Path_166" data-name="Path 166" d="M68.7,6.41c-.039-.2-.079-.409-.117-.613.886-.375,1.744-.944,2.743-.551a.79.79,0,0,1,.066.464.71.71,0,0,1,.149.766,1.035,1.035,0,0,1-.692.272c-.714-.133-1.5.329-2.148-.338" transform="translate(-2.004 -0.149)" fill="#e05b2d"/>
      <path id="Path_167" data-name="Path 167" d="M28.646,4.433l-.983-.017a1.169,1.169,0,0,0-.193-.469c.839-1.311.877.018,1.177.486" transform="translate(-0.803 -0.099)" fill="#e05b2d"/>
      <path id="Path_168" data-name="Path 168" d="M49.786,3.894a2.68,2.68,0,0,1-1.812-.326c.738-.337,1.329-.475,1.8.352Z" transform="translate(-1.402 -0.096)" fill="#e05b2d"/>
      <path id="Path_169" data-name="Path 169" d="M52.669,6.607c-.308.86.493,2.474-1.2,2.4.055-.451.6-.92-.035-1.347a.648.648,0,0,1-.068-.673,6.674,6.674,0,0,1,.557-.37l.741-.006" transform="translate(-1.499 -0.193)" fill="#e05b2d"/>
      <path id="Path_170" data-name="Path 170" d="M51.9,6.61l-.51.614c-.568.233-1.07.325-1.063-.676l.613-.063.96.125" transform="translate(-1.47 -0.189)" fill="#e05b2d"/>
      <path id="Path_171" data-name="Path 171" d="M59.369,3.927c-.122.415-.145.9-.581,1.091-.382-.541-1.282-1.034-.112-1.712l.692.621" transform="translate(-1.697 -0.096)" fill="#e05b2d"/>
      <path id="Path_172" data-name="Path 172" d="M38.567,4.577a1.2,1.2,0,0,1,.066.547c-.715.349-1.428.03-2.142-.009A2.339,2.339,0,0,1,37.54,3.9c.653-.415.858.094,1.026.679" transform="translate(-1.066 -0.109)" fill="#e05b2d"/>
      <path id="Path_173" data-name="Path 173" d="M57.853,12.951a1.392,1.392,0,0,1-.479.224c-.935-1.146-2.09-.893-3.237-.7l-2.825-.1-1.43.026c-.384-.16-.881-.055-1.087-.633.512-.207,1.15.031,1.538-.6.747-.4,1.365.274,2.055.336l1.24.05c1.065-.826,2.117-.13,3.173.037,1.044.6,2.378-.8,3.3.654-.625.771-1.625-.093-2.244.7" transform="translate(-1.426 -0.322)" fill="#e05b2d"/>
      <path id="Path_174" data-name="Path 174" d="M81.757,3.954a1.463,1.463,0,0,1,.151,1.18,2,2,0,0,1-.594.513,2.265,2.265,0,0,1-1.485.017,1.411,1.411,0,0,1-.6-.508L78.374,4.1l3.383-.146" transform="translate(-2.29 -0.115)" fill="#e05b2d"/>
      <path id="Path_175" data-name="Path 175" d="M76.346,5.663a2.08,2.08,0,0,1-1.525.029c.5-.821,1.008-.671,1.525-.029" transform="translate(-2.186 -0.15)" fill="#e05b2d"/>
      <path id="Path_176" data-name="Path 176" d="M108.817,5.282l1.51-.111q-.275.328-.551.656c-.335-.145-.788-.007-.958-.546" transform="translate(-3.179 -0.151)" fill="#e05b2d"/>
      <path id="Path_177" data-name="Path 177" d="M61.928,6.435a3.533,3.533,0,0,1-2.379-.265,2.713,2.713,0,0,1,2.384-.117.8.8,0,0,0,0,.382" transform="translate(-1.74 -0.17)" fill="#e05b2d"/>
      <path id="Path_178" data-name="Path 178" d="M19.872,2.061l.489,1.115c-.2.025-.4.05-.592.076l-.562-.1.044-1.193.621.106" transform="translate(-0.561 -0.057)" fill="#e05b2d"/>
      <path id="Path_179" data-name="Path 179" d="M50.3,6.549a1.451,1.451,0,0,0,1.063.676,1.811,1.811,0,0,1,.019.429l-.987.163c-.64-.083-1.143-.33-1.1-1.239L50.3,6.549" transform="translate(-1.44 -0.191)" fill="#e05b2d"/>
      <path id="Path_180" data-name="Path 180" d="M60.41,4.481a.771.771,0,0,1-.175-.569c.521-.247,1.047-.658,1.542.056-.283.8-.888.426-1.367.513" transform="translate(-1.76 -0.104)" fill="#e05b2d"/>
      <path id="Path_181" data-name="Path 181" d="M78.005,6.64l1.238-.322c.63-.437,1.444-.394,2-1.033l.622-.116q.074.393.148.786l.96,1.113c-.385.134-.883-.028-1.094.566l.044.256a.887.887,0,0,1-1.112-.032l-1.109,0a1.417,1.417,0,0,1-1.585.024L77.054,7.67a.52.52,0,0,1-.183-.6c.308-.393.777-.217,1.135-.434" transform="translate(-2.245 -0.151)" fill="#e05b2d"/>
      <path id="Path_182" data-name="Path 182" d="M136.456,6.475c-.6.011-1.26.234-1.631-.6.611-.047,1.257-.225,1.631.6" transform="translate(-3.939 -0.17)" fill="#e05b2d"/>
      <path id="Path_183" data-name="Path 183" d="M58.126,12.985c.579-.974,1.508-.419,2.244-.7a.333.333,0,0,1,.468.073c-.01.161-.014.322-.012.484q-.079.367-.256.309c-.135-.043-.2-.1-.2-.164l-1.253.037-.988-.036" transform="translate(-1.698 -0.357)" fill="#e05b2d"/>
      <path id="Path_184" data-name="Path 184" d="M65.173,8.478c-.147-.078-.4-.129-.42-.24-.076-.4.219-.448.447-.415.141.02.264.213.394.327l-.42.327" transform="translate(-1.892 -0.228)" fill="#e05b2d"/>
      <path id="Path_185" data-name="Path 185" d="M103.28,10.23c-.109-.109-.315-.227-.308-.324.023-.321.215-.555.5-.477.087.024.181.347.154.507-.019.119-.226.2-.35.294" transform="translate(-3.009 -0.275)" fill="#e05b2d"/>
      <path id="Path_186" data-name="Path 186" d="M109.217,9.095q-.019.6-.037,1.192a.708.708,0,0,1-.733-.717c-.014-.574.454-.432.77-.475" transform="translate(-3.169 -0.265)" fill="#e05b2d"/>
      <path id="Path_187" data-name="Path 187" d="M76.843,7.179a1.414,1.414,0,0,1,.083.526c-.61.178-.879,1.106-1.616,1a.391.391,0,0,0-.115-.357c-.6-.673-1.517.074-2.114-.627l-.639-.136c.383-1.473,1.619-.322,2.261-1l-.028-.21,1.161.122c.236.427.824.148,1.007.683" transform="translate(-2.117 -0.186)" fill="#e05b2d"/>
      <path id="Path_188" data-name="Path 188" d="M115.436,9.766l.991-.058a10.145,10.145,0,0,1,1.529.089c.317.063.29.373.075.623l-2.118,0a.631.631,0,0,1-.477-.659" transform="translate(-3.373 -0.283)" fill="#e05b2d"/>
      <path id="Path_189" data-name="Path 189" d="M121.572,10.322c.44-1.1,1.327-.4,1.973-.671l.526.117a.723.723,0,0,1,.061.565l-2.56-.012" transform="translate(-3.552 -0.282)" fill="#e05b2d"/>
      <path id="Path_190" data-name="Path 190" d="M74.673,6.583c-.575.884-1.7.076-2.26,1l-.952-.53.02-.389-.006-.283,3.2.2" transform="translate(-2.088 -0.186)" fill="#e05b2d"/>
      <path id="Path_191" data-name="Path 191" d="M71.4,6.667a1.282,1.282,0,0,0-.021.39,5.566,5.566,0,0,1-2.7-.067,2.808,2.808,0,0,0,.026-.542,8.555,8.555,0,0,1,2.7.218" transform="translate(-2.007 -0.188)" fill="#e05b2d"/>
      <path id="Path_192" data-name="Path 192" d="M144.082,9.739q.08.6.159,1.192c-.842.162-1.645.249-1.691-1.163l1.532-.029" transform="translate(-4.165 -0.284)" fill="#e05b2d"/>
      <path id="Path_193" data-name="Path 193" d="M137.172,10.26l.348-.58,1.316.2c-.742,1.2-1.163,1.292-1.664.381" transform="translate(-4.008 -0.283)" fill="#e05b2d"/>
      <path id="Path_194" data-name="Path 194" d="M60.436,13a.821.821,0,0,0,.459-.145c.324.087.708.063.852.509.017.054-.216.3-.354.329-.486.117-.817-.124-.957-.693" transform="translate(-1.766 -0.375)" fill="#e05b2d"/>
      <path id="Path_195" data-name="Path 195" d="M86.392,8.432c-.094.7-.96.54-1.036,1.263-.819-.959-.293-1.209.508-1.312a1.474,1.474,0,0,0,.528.05" transform="translate(-2.482 -0.245)" fill="#e05b2d"/>
      <path id="Path_196" data-name="Path 196" d="M76.945,7.182c-.391-.116-.907.017-1.007-.683l2.041.18-1.034.5" transform="translate(-2.219 -0.19)" fill="#e05b2d"/>
    </g>
  </g>
</svg>
