<svg id="Group_7" data-name="Group 7" xmlns="http://www.w3.org/2000/svg" xmlns:xlink="http://www.w3.org/1999/xlink" width="25.255" height="34.862" viewBox="0 0 25.255 34.862">
  <defs>
    <clipPath id="clip-path">
      <rect id="Rectangle_2" data-name="Rectangle 2" width="25.255" height="34.862" fill="none"/>
    </clipPath>
  </defs>
  <g id="Group_6" data-name="Group 6" clip-path="url(#clip-path)">
    <path id="Path_2" data-name="Path 2" d="M8.893.621c4.276,0,7.872,2.2,7.872,12.747s-3.6,12.867-7.872,12.867H1.38a.735.735,0,0,1-.759-.759V1.38A.735.735,0,0,1,1.38.621ZM7.734,21.04h.6c1.119,0,1.319-.32,1.319-7.672,0-7.113-.2-7.552-1.319-7.552h-.6V21.04M8.893,0H1.38A1.35,1.35,0,0,0,0,1.38v24.1a1.35,1.35,0,0,0,1.38,1.38H8.893c5.794,0,8.493-4.286,8.493-13.488,0-5.047-.8-8.55-2.461-10.708A7.074,7.074,0,0,0,8.893,0M8.355,20.419V6.437c.213,0,.247.026.25.028s.107.1.2.575a45.715,45.715,0,0,1,.229,6.328c0,2.953-.035,4.576-.12,5.6-.1,1.206-.263,1.4-.294,1.424a.791.791,0,0,1-.262.023" transform="translate(0 0)" fill="#141312"/>
    <path id="Path_3" data-name="Path 3" d="M26.893,62.505A.887.887,0,0,1,26,61.6v-.174l1.814-4.121,1.453-3.118a5.426,5.426,0,0,0,.458-1.151v-.51l.337-.157c0-.013.034-.1.034-.1l.367-.742a1.685,1.685,0,0,1-.926-.3,1.02,1.02,0,0,1-.846-.935v-.121l.017-.082a1,1,0,0,1,.507-.651,11.642,11.642,0,0,1-1.425-.124h-.352a1.41,1.41,0,0,0-.259.023l-.2.037-.079-.024h-.224a.946.946,0,0,1-.2-.021c-.17.014-.3.021-.4.021H25.61a.926.926,0,0,1-.84-.557l-.088-.175v-.2c0-.836.781-.927,1.873-1.029a3.658,3.658,0,0,1,.463-.1l.964-.16v.055q.282-.039.574-.075V47.1c0-.586.446-.789.86-.882V45.7h.021l-.046-.274h1.139l.117-.035.132,0a.948.948,0,0,1,.256.035c1.285-.017,1.942-.042,2.277-.061.093-.2.141-.311.165-.372v-.11l.117-.2A12.752,12.752,0,0,0,34.6,42.573a.961.961,0,0,1-.117-.455v-.189l.841-1.752c.441-.907.846-1.684,1.206-2.314.456-.985.887-1.85,1.281-2.571l.235-.431h.491a.879.879,0,0,1,.731.4h.3l.249.32a2.351,2.351,0,0,0,.257.287l.266.246v.736a2.65,2.65,0,0,1-.067.518.9.9,0,0,1,.437.324h.2l.757,1.17a1.268,1.268,0,0,1,.25-.024h.106a1.172,1.172,0,0,1,.609-.308l.027-.016h1.114a.922.922,0,0,1,.863.637l.053.141v.337a1.535,1.535,0,0,1,.137.574v.084l-.008.059c-.1.7-.212,1.345-.329,1.908l.019.132-.217,2.389v.465l-.083.171a3.539,3.539,0,0,0-.366.924c-.058,1.5-.142,3.108-.25,4.8l0,.064-.014.063a1.435,1.435,0,0,1-.7.884v.72l-.933-.2a2.686,2.686,0,0,1-.281.131l-.031.173-.067.121a1.01,1.01,0,0,1-.874.65h-.062l-.072,0a1.287,1.287,0,0,1-.629.95l-.175.087h-.233a.963.963,0,0,1-.857-.6l-.2-.09q-.056-.025-.108-.054H38.28a.89.89,0,0,1-.891-.928v-.126l.045-.143a1.4,1.4,0,0,1-.045-.329,1.836,1.836,0,0,1,.046-.406,1.041,1.041,0,0,1-.008-.13c0-.031,0-.076.021-.362l-.026-.192-.594.07a2.153,2.153,0,0,0-.081.235l-.094.331-.214.119c-.026.035-.071.1-.138.2l-.158.249-.448.149c-.106.1-.239.218-.4.357l-.569.494-.074.128-.3.1a1.15,1.15,0,0,1-.386.08h-.206l-.322.553-.011.018a16.745,16.745,0,0,0-.984,1.625,4.012,4.012,0,0,1-.788,1.228,3.074,3.074,0,0,1-.687.826l-.233.2h-.306a.856.856,0,0,1-.262-.041c-.107.144-.278.393-.541.819l-.1.161-.5.319h-.074c-.1.185-.24.453-.439.843L28.5,60.5a9.368,9.368,0,0,0-.606,1.3l-.069.183-.143.133a1.033,1.033,0,0,1-.75.383Z" transform="translate(-19.572 -27.643)" fill="#141312"/>
    <path id="Path_4" data-name="Path 4" d="M45.463,54.684q.423-.211.473-.436.162-2.529.249-4.759a3.692,3.692,0,0,1,.449-1.271v-.311l.212-2.33c-.017-.116-.025-.178-.025-.187q.187-.872.349-1.993v-.025a1.545,1.545,0,0,0-.137-.411v-.349c-.025-.066-.054-.1-.087-.1h-.885L46,42.55v-.037q-.262,0-.473.448a1.934,1.934,0,0,1-.436-.125c-.108,0-.162.021-.162.062a1.519,1.519,0,0,0-.922.249h-.062a.293.293,0,0,0-.025-.1,6.89,6.89,0,0,0,.125-.722l-.411-.635H43.57l-.224.2h-.025c-.067-.033-.1-.066-.1-.1v-.411c0-.033-.021-.054-.062-.062H43.1a2.262,2.262,0,0,0-.249.062h-.386v-.124q.224-1.084.224-1.233v-.374a3.2,3.2,0,0,1-.349-.386h-.087l-.162.037c0-.025-.042-.046-.124-.062q-.2-.374-.249-.374-.586,1.072-1.271,2.554-.535.934-1.2,2.292l-.76,1.582q0,.1.224.287a13.445,13.445,0,0,1-1.233,2.7,5.681,5.681,0,0,1-.436,1.009,17.332,17.332,0,0,1-3.027.137c0-.025-.02-.037-.062-.037a.863.863,0,0,1-.249.037h-.162l.025.15q0,.125-.149.124,0,.274-.349.448-.511.075-.511.125c0,.025.067.079.2.162h.025a2.33,2.33,0,0,1,.249-.062h.8q1.3.05,1.3.249l-.037.062a3.7,3.7,0,0,0-.723.162q-2.242.187-4.036.473v-.037a1.659,1.659,0,0,0-.448.1q-1.2.112-1.2.212c.033.066.067.1.1.1h.474q.162,0,.536-.037c0,.025.021.037.062.037a.217.217,0,0,1,.087-.037.9.9,0,0,1,.262.037,2.219,2.219,0,0,1,.411-.037h.436a17.256,17.256,0,0,0,2.3.162q0-.037.087-.037c.108.017.162.05.162.1l-.162.187a1.813,1.813,0,0,0,.062.262.055.055,0,0,1-.062.062l.037.311a1.235,1.235,0,0,1-.1.287,2.916,2.916,0,0,0-.685.436v.037q0,.075.411.187a.842.842,0,0,0,.623.224q.474-.037.984-.037H34.8c.033,0,.067.042.1.124q0,.062-.86,1.794a.743.743,0,0,1-.312.473,4.829,4.829,0,0,1-.535,1.483l-1.445,3.1L30,64.775c0,.05.021.075.063.075H30.1a1.454,1.454,0,0,0,.187-.162,10.123,10.123,0,0,1,.66-1.42,10.843,10.843,0,0,1,.76-1.383h.062l.125.087h.062l.137-.087a4.869,4.869,0,0,1,.909-1.233q.249-.411.311-.411h.062a.971.971,0,0,0,.037.125l-.037.162q.175.187.224.187a2.212,2.212,0,0,0,.536-.66,3.638,3.638,0,0,0,.7-1.047,16.032,16.032,0,0,1,1.071-1.794q1.968-3.389,2.18-3.625h.062v.087a6.156,6.156,0,0,1-.473.984q-.324.885-.6,1.508l.062.1a.969.969,0,0,0,.125-.037q.374-.648.5-.66a.273.273,0,0,1,.162.1,3.1,3.1,0,0,0,.474-.449l.374-.124a1.481,1.481,0,0,1,.349-.436,2.228,2.228,0,0,1,.374-.785l1.682-.2a.214.214,0,0,0,.087.037l.224-.037c.083.017.124.05.124.1a.681.681,0,0,0-.124.411l.025.162q-.012.212-.087.212l.025.187q-.025.336-.025.386c0,.017.008.079.025.187a1.029,1.029,0,0,0-.062.349,1.27,1.27,0,0,0,.062.287,1.121,1.121,0,0,1-.062.311q0,.1.062.1a.413.413,0,0,1,.287-.162.314.314,0,0,0,.224.287l.124-.062a2.026,2.026,0,0,1,.312.212q.237.474.287.473h.037q.224-.112.336-1.445.411-1.42.548-2.18a1.752,1.752,0,0,1,.249-1.134h.025a1.011,1.011,0,0,0,.062.249q-.025.112-.149,1.071a.283.283,0,0,0,.025.1l-.062.847a4.956,4.956,0,0,1,.037.635,1.429,1.429,0,0,1-.037.287.357.357,0,0,1,.037.212.576.576,0,0,1-.063.262.055.055,0,0,0,.063.062h.062q.025,0,.149-.224a2,2,0,0,1,.224-.7.357.357,0,0,1,.187.062,1.656,1.656,0,0,0,.536-.249,1.381,1.381,0,0,1,.262.037,1.5,1.5,0,0,1,.249-.324M30.675,51.532h-.037l-.224-.025q.025-.1.262-.1a.062.062,0,1,1,0,.125m.909,10.253h-.037v-.1h.037l.063.037a.055.055,0,0,1-.063.062M42.507,49.451q0,.267-1.431.5l-.266-.166v-.266l1.963-4.026h.333a.749.749,0,0,0,.067.233q-.233,1.066-.666,3.726" transform="translate(-22.743 -30.816)" fill="#e05b2d"/>
  </g>
</svg>
